<svg width="118" height="26" viewBox="0 0 118 26" fill="none" xmlns="http://www.w3.org/2000/svg">
<path d="M3.13632 17.9573L0 17.7111V17.5141L0.193999 17.4813C0.678997 17.3664 0.921496 17.0545 0.921496 16.5292V6.43454C0.921496 6.17191 0.889163 5.97494 0.80833 5.82722C0.727497 5.6959 0.565831 5.59742 0.323332 5.54818L0.0646664 5.46611V5.26914L3.37882 4.46484L3.60515 4.62899L3.52432 7.28808V9.19212C3.92848 8.89666 4.38115 8.68328 4.86615 8.53555C5.35114 8.38782 5.83614 8.32217 6.33731 8.32217C7.04864 8.32217 7.66297 8.48631 8.21263 8.831C8.7623 9.15929 9.18263 9.68454 9.50596 10.3739C9.82929 11.0797 9.97479 11.9661 9.97479 13.0659C9.97479 14.1656 9.79696 15.0684 9.44129 15.7906C9.08563 16.5128 8.6168 17.0545 8.0348 17.432C7.4528 17.7931 6.78997 17.9737 6.09481 17.9737C5.64214 17.9737 5.17331 17.908 4.70448 17.7767C4.23565 17.6454 3.83148 17.4813 3.45965 17.2515L3.13632 17.9573ZM5.14098 17.3499C5.54514 17.3499 5.88464 17.2186 6.17564 16.9724C6.46664 16.7262 6.70914 16.283 6.88697 15.6757C7.0648 15.0684 7.14564 14.2313 7.14564 13.1479C7.14564 12.081 7.0648 11.2603 6.90314 10.6694C6.74147 10.0949 6.51514 9.68454 6.22414 9.45474C5.93314 9.22494 5.57748 9.11004 5.17331 9.11004C4.59131 9.11004 4.05782 9.27419 3.55665 9.60247V16.8575C3.79915 17.0052 4.04165 17.1201 4.28415 17.2022C4.52665 17.3171 4.81765 17.3499 5.14098 17.3499Z" fill="#E7D0E3"/>
<path d="M10.7668 17.7107V17.5137L11.0417 17.4316C11.2842 17.3496 11.462 17.2347 11.559 17.0869C11.656 16.9392 11.7045 16.7422 11.7045 16.496V10.5869C11.7045 10.3079 11.656 10.1109 11.559 9.97961C11.462 9.84829 11.3003 9.74981 11.0417 9.70056L10.7668 9.61849V9.42152L13.9678 8.32178L14.1618 8.51875L14.3235 10.1437V10.2915C14.5013 9.94678 14.7277 9.61849 15.0025 9.32304C15.2773 9.02759 15.5845 8.78137 15.9402 8.60082C16.2797 8.40385 16.6192 8.32178 16.9587 8.32178C17.4275 8.32178 17.7831 8.45309 18.0418 8.71572C18.2843 8.97834 18.4136 9.30663 18.4136 9.71698C18.4136 10.1437 18.3005 10.472 18.058 10.7018C17.8155 10.9316 17.5245 11.0465 17.185 11.0465C16.6677 11.0465 16.1988 10.7839 15.8108 10.2586L15.7785 10.2258C15.6492 10.0453 15.5037 9.94678 15.3582 9.93036C15.1965 9.91395 15.051 9.99602 14.9055 10.1602C14.7762 10.2751 14.6792 10.4064 14.5983 10.5705C14.5175 10.7347 14.4367 10.9152 14.372 11.1122V16.4139C14.372 16.9228 14.5822 17.2347 15.0187 17.366L15.6168 17.5301V17.7271H10.7668V17.7107Z" fill="#E7D0E3"/>
<path d="M21.3076 17.9898C20.5801 17.9898 19.9819 17.7764 19.4969 17.366C19.0119 16.9557 18.7694 16.3484 18.7694 15.5769C18.7694 14.986 19.0604 14.4443 19.6586 13.9355C20.2567 13.4431 21.1944 13.0655 22.4716 12.8193C22.6656 12.7865 22.8919 12.7373 23.1344 12.7044C23.3769 12.6552 23.6356 12.6059 23.9104 12.5567V11.063C23.9104 10.2095 23.8134 9.60215 23.6032 9.25746C23.3931 8.91276 23.0859 8.73221 22.6494 8.73221C22.3584 8.73221 22.1159 8.83069 21.9381 9.02766C21.7602 9.22463 21.6471 9.55291 21.5986 10.0453L21.5662 10.2587C21.5339 10.8004 21.4046 11.1943 21.1782 11.4405C20.9357 11.6868 20.6447 11.8181 20.3052 11.8181C19.9819 11.8181 19.7232 11.7196 19.5131 11.5226C19.3029 11.3256 19.1897 11.0466 19.1897 10.7183C19.1897 10.2095 19.3676 9.7663 19.7232 9.4216C20.0789 9.0769 20.5477 8.79786 21.1297 8.63372C21.7117 8.45316 22.3422 8.37109 23.0212 8.37109C24.1206 8.37109 24.9774 8.65013 25.5756 9.1918C26.1737 9.73347 26.4809 10.6362 26.4809 11.8673V16.0365C26.4809 16.611 26.7395 16.89 27.2569 16.89H27.661L27.8227 17.0378C27.5802 17.3332 27.3377 17.5794 27.0467 17.7436C26.7557 17.9077 26.3677 17.9898 25.8665 17.9898C25.3169 17.9898 24.8966 17.8585 24.5732 17.5958C24.2499 17.3332 24.0559 16.9885 23.9427 16.5618C23.5709 16.9721 23.1829 17.3004 22.7949 17.5958C22.4069 17.8913 21.9219 17.9898 21.3076 17.9898ZM22.4392 16.8408C22.6817 16.8408 22.9242 16.7751 23.1344 16.6602C23.3446 16.5453 23.6032 16.3484 23.9104 16.1022V12.9342C23.7811 12.9671 23.6679 12.9835 23.5386 13.0163C23.4092 13.0491 23.2637 13.0655 23.1182 13.0984C22.5524 13.2461 22.0997 13.5087 21.7441 13.8698C21.4046 14.2309 21.2267 14.707 21.2267 15.3143C21.2267 15.8231 21.3399 16.2171 21.5824 16.4797C21.8249 16.7095 22.0997 16.8408 22.4392 16.8408Z" fill="#E7D0E3"/>
<path d="M28.1947 17.7107V17.5137L28.4534 17.4316C28.8899 17.3003 29.1 17.0049 29.1 16.5124V10.6033C29.1 10.3243 29.0515 10.1273 28.9707 9.99602C28.8899 9.86471 28.712 9.76622 28.4695 9.71698L28.1947 9.63491V9.43794L31.3795 8.33819L31.5735 8.53516L31.719 9.66774C32.1555 9.2738 32.6405 8.96193 33.1902 8.6993C33.7399 8.45309 34.2733 8.32178 34.8068 8.32178C35.6313 8.32178 36.2618 8.55158 36.6983 8.99476C37.1348 9.45435 37.3612 10.1437 37.3612 11.0794V16.5124C37.3612 17.0049 37.6037 17.3167 38.0725 17.4316L38.2342 17.4809V17.6778H33.8368V17.4809L34.0793 17.3988C34.5158 17.2675 34.726 16.9556 34.726 16.4796V10.5049C34.726 9.70057 34.3218 9.29021 33.5297 9.29021C32.98 9.29021 32.3819 9.56925 31.7514 10.1273V16.5453C31.7514 17.0377 31.9615 17.3496 32.398 17.4645L32.5597 17.5137V17.7107H28.1947Z" fill="#E7D0E3"/>
<path d="M42.89 17.9899C42.1625 17.9899 41.4997 17.8258 40.9177 17.4975C40.3357 17.1692 39.8668 16.6439 39.5273 15.9546C39.1878 15.2487 39.01 14.3624 39.01 13.2626C39.01 12.1465 39.204 11.2437 39.592 10.5215C39.98 9.79925 40.4812 9.25758 41.1117 8.89647C41.7422 8.53536 42.4373 8.35481 43.181 8.35481C43.6175 8.35481 44.0378 8.40405 44.4258 8.48612C44.83 8.56819 45.1695 8.6995 45.4928 8.88006V6.41794C45.4928 6.15531 45.4605 5.95834 45.3796 5.82703C45.2988 5.69572 45.121 5.61365 44.8623 5.5644L44.5066 5.48233V5.28536L47.8855 4.44824L48.0956 4.61238L48.0148 7.28789V16.529C48.0148 16.7753 48.0633 16.9886 48.1441 17.1364C48.225 17.3005 48.3866 17.399 48.6291 17.4647L48.7908 17.5139V17.7109L45.606 17.9242L45.4443 17.2513C45.1048 17.4811 44.733 17.6616 44.2965 17.7929C43.8761 17.9242 43.4073 17.9899 42.89 17.9899ZM43.957 17.3005C44.4743 17.3005 44.9593 17.1364 45.3958 16.8245V9.32324C44.9431 9.02779 44.4581 8.86364 43.9893 8.86364C43.3912 8.86364 42.89 9.20834 42.4697 9.91415C42.0493 10.62 41.8392 11.7197 41.8392 13.2134C41.8392 14.7071 42.0332 15.774 42.4373 16.3813C42.8253 16.9886 43.3265 17.3005 43.957 17.3005Z" fill="#E7D0E3"/>
<path d="M67.0106 0C59.9458 0 54.2067 5.82702 54.2067 13C54.2067 20.173 59.9458 26 67.0106 26C74.0754 26 79.8146 20.173 79.8146 13C79.8146 5.82702 74.0754 0 67.0106 0ZM71.5858 17.7109L68.3363 17.9078L68.1746 16.7917C67.7705 17.1364 67.3178 17.4154 66.849 17.6452C66.364 17.875 65.8143 17.9899 65.1676 17.9899C64.6826 17.9899 64.2461 17.8914 63.842 17.7109C63.4378 17.5139 63.1145 17.2184 62.8881 16.7917C62.6618 16.3649 62.5486 15.8068 62.5648 15.1174L62.6133 10.2588C62.6133 9.96338 62.5648 9.76641 62.4678 9.6351C62.3708 9.50379 62.2091 9.42172 61.999 9.37247L61.7726 9.2904V9.09343L65.103 8.43687L65.297 8.63384L65.2 11.3258V15.8725C65.2 16.2828 65.3131 16.5783 65.5395 16.7588C65.7658 16.9558 66.0568 17.0379 66.4125 17.0379C66.752 17.0379 67.0753 16.9886 67.3501 16.8902C67.625 16.7917 67.8998 16.6439 68.1746 16.4306L68.2554 10.2753C68.2554 9.9798 68.2069 9.78283 68.1261 9.66793C68.0453 9.55303 67.8836 9.47096 67.6411 9.4053L67.4471 9.35606V9.15909L70.6966 8.43687L70.8906 8.63384L70.8098 11.3258V16.447C70.8098 16.726 70.8421 16.9394 70.9229 17.0871C71.0038 17.2348 71.1654 17.3662 71.4079 17.4646L71.6019 17.5139V17.7109H71.5858Z" fill="#E7D0E3"/>
<path d="M90.7755 14.7565H89.9833L89.4821 13.8209H87.0733L86.5883 14.7565H85.8285L87.9463 10.7515H88.6253L90.7755 14.7565ZM88.2858 11.5229L87.429 13.1479H89.1588L88.2858 11.5229Z" fill="#E7D0E3"/>
<path d="M95.9165 14.182C95.5932 14.4118 94.9788 14.8878 93.928 14.8878C92.4568 14.8878 91.5515 13.9029 91.5515 12.754C91.5515 11.6378 92.4245 10.6201 93.9442 10.6201C94.995 10.6201 95.577 11.1125 95.8195 11.2767L95.4315 11.8184C94.995 11.5229 94.4777 11.2931 93.9442 11.2931C92.7963 11.2931 92.2144 11.9989 92.2144 12.754C92.2144 13.4926 92.8125 14.1984 93.928 14.1984C94.3807 14.1984 94.8495 14.0507 95.2375 13.8045V13.1971H94.1058V12.5077H95.9165V14.182Z" fill="#E7D0E3"/>
<path d="M101.171 14.7565H97.6139V10.7515H101.09V11.4409H98.2767V12.3601H99.8126V13.0494H98.2767V14.1H101.154V14.7565H101.171Z" fill="#E7D0E3"/>
<path d="M106.813 14.7565H106.134L103.66 11.7691V14.7565H102.981V10.7515H103.66L106.134 13.7224V10.7515H106.813V14.7565Z" fill="#E7D0E3"/>
<path d="M113.101 14.2642C112.94 14.3791 112.277 14.888 111.097 14.888C109.658 14.888 108.639 14.0344 108.639 12.7541C108.639 11.5067 109.674 10.6367 111 10.6367C112.099 10.6367 112.73 11.1456 113.053 11.3918L112.697 11.9663C112.277 11.6872 111.824 11.3261 111 11.3261C109.949 11.3261 109.302 11.9991 109.302 12.8198C109.302 13.5256 109.868 14.2314 111.081 14.2314C112.002 14.2314 112.584 13.8046 112.794 13.6733L113.101 14.2642Z" fill="#E7D0E3"/>
<path d="M116.27 14.7565H115.591V12.951L113.861 10.7515H114.718L115.931 12.3108L117.143 10.7515H118L116.27 12.951V14.7565Z" fill="#E7D0E3"/>
</svg>
