<svg width="9" height="16" viewBox="0 0 9 16" fill="none" xmlns="http://www.w3.org/2000/svg">
<g clip-path="url(#clip0)">
<path d="M8.65385 0H6.49038C4.06731 0 2.49231 1.54839 2.49231 3.94589V5.76067H0.346154C0.155769 5.76067 0 5.91051 0 6.09365V8.72425C0 8.90739 0.155769 9.05723 0.346154 9.05723H2.50962V15.7003C2.50962 15.8835 2.66538 16.0333 2.85577 16.0333H5.69423C5.88462 16.0333 6.04039 15.8835 6.04039 15.7003V9.04058H8.58462C8.775 9.04058 8.93077 8.89074 8.93077 8.7076V6.077C8.93077 5.99376 8.89615 5.91051 8.82692 5.84391C8.75769 5.77732 8.67115 5.74402 8.58462 5.74402H6.02308V4.21228C6.02308 3.47971 6.21346 3.09677 7.2 3.09677H8.65385C8.84423 3.09677 9 2.94693 9 2.76379V0.332987C9 0.149844 8.84423 0 8.65385 0Z" fill="#6EE9CB"/>
</g>
<defs>
<clipPath id="clip0">
<rect width="9" height="16" fill="white"/>
</clipPath>
</defs>
</svg>
