<svg width="10" height="10" viewBox="0 0 10 10" fill="none" xmlns="http://www.w3.org/2000/svg">
<path d="M5.16171 8.09998H4.67872C4.33857 8.09998 4.06213 8.37641 4.06213 8.71656V9.3835C4.06213 9.72365 4.33857 10.0001 4.67872 10.0001H5.16171C5.50187 10.0001 5.7783 9.72365 5.7783 9.3835V8.71656C5.7783 8.37539 5.50187 8.09998 5.16171 8.09998Z" fill="#736697"/>
<path d="M1.75614 2.93701L2.6471 3.04799C2.9297 3.08293 3.19792 2.92056 3.29966 2.6544C3.42811 2.31836 3.60692 2.05323 3.83609 1.86003C4.16083 1.58668 4.56469 1.44898 5.04768 1.44898C5.54814 1.44898 5.94687 1.58052 6.24283 1.84256C6.53879 2.10564 6.68574 2.4201 6.68574 2.78902C6.68574 3.05416 6.6025 3.29668 6.43602 3.5166C6.32812 3.65636 5.99619 3.95026 5.44229 4.39934C4.88737 4.84842 4.51845 5.2533 4.33348 5.61298C4.14439 5.98089 4.07862 6.38885 4.06218 6.79786C4.0478 7.14829 4.32731 7.44014 4.67876 7.44014H5.18231C5.50293 7.44014 5.76807 7.19453 5.79684 6.87596C5.81739 6.64681 5.85542 6.47314 5.91297 6.35496C6.00956 6.1525 6.25928 5.88531 6.66006 5.55237C7.43592 4.91008 7.94152 4.40242 8.17892 4.02836C8.41528 3.65533 8.53448 3.25969 8.53448 2.84143C8.53448 2.08612 8.21283 1.42329 7.5685 0.853972C6.92519 0.284657 6.05786 0 4.96856 0C3.9327 0 3.09722 0.280547 2.46008 0.842668C1.91749 1.32155 1.58761 1.88881 1.47149 2.54342C1.43551 2.73456 1.56602 2.91337 1.75614 2.93701Z" fill="#736697"/>
</svg>
