<svg width="12" height="12" viewBox="0 0 12 12" fill="none" xmlns="http://www.w3.org/2000/svg">
<g clip-path="url(#clip0)">
<path d="M11.9882 3.52803C11.9601 2.89043 11.857 2.45208 11.7092 2.07224C11.5569 1.66906 11.3225 1.30809 11.0153 1.00801C10.7152 0.703262 10.3519 0.466461 9.95338 0.316468C9.57135 0.168765 9.13529 0.0656561 8.49768 0.0375439C7.85532 0.00705093 7.65139 0 6.02217 0C4.39294 0 4.18901 0.00705093 3.54903 0.0351631C2.91142 0.0632753 2.47307 0.166475 2.09333 0.314087C1.69005 0.466461 1.32908 0.700882 1.029 1.00801C0.724258 1.30809 0.487548 1.67144 0.337464 2.06995C0.189761 2.45208 0.0866522 2.88805 0.05854 3.52565C0.028047 4.16802 0.0209961 4.37195 0.0209961 6.00117C0.0209961 7.6304 0.028047 7.83432 0.0561592 8.47431C0.0842714 9.11192 0.187471 9.55027 0.335175 9.9301C0.487548 10.3333 0.724258 10.6943 1.029 10.9943C1.32908 11.2991 1.69243 11.5359 2.09095 11.6859C2.47307 11.8336 2.90904 11.9367 3.54674 11.9648C4.18663 11.993 4.39065 12 6.01988 12C7.6491 12 7.85303 11.993 8.49301 11.9648C9.13062 11.9367 9.56897 11.8336 9.94871 11.6859C10.7552 11.3741 11.3928 10.7365 11.7046 9.9301C11.8522 9.54798 11.9554 9.11192 11.9835 8.47431C12.0116 7.83432 12.0187 7.6304 12.0187 6.00117C12.0187 4.37195 12.0163 4.16802 11.9882 3.52803ZM10.9075 8.42743C10.8817 9.01348 10.7833 9.32995 10.7012 9.54093C10.4996 10.0637 10.0847 10.4786 9.56192 10.6802C9.35094 10.7623 9.03218 10.8607 8.44842 10.8865C7.81548 10.9147 7.62566 10.9216 6.02455 10.9216C4.42343 10.9216 4.23123 10.9147 3.60058 10.8865C3.01453 10.8607 2.69806 10.7623 2.48708 10.6802C2.22693 10.5841 1.99013 10.4317 1.79792 10.2325C1.59867 10.0379 1.44629 9.80346 1.35014 9.54331C1.2681 9.33233 1.16966 9.01348 1.14393 8.42981C1.11572 7.79687 1.10876 7.60695 1.10876 6.00584C1.10876 4.40473 1.11572 4.21252 1.14393 3.58197C1.16966 2.99592 1.2681 2.67945 1.35014 2.46847C1.44629 2.20823 1.59867 1.97152 1.8003 1.77922C1.9948 1.57996 2.22922 1.42759 2.48946 1.33153C2.70044 1.24948 3.01929 1.15104 3.60296 1.12522C4.2359 1.09711 4.42582 1.09006 6.02684 1.09006C7.63033 1.09006 7.82015 1.09711 8.4508 1.12522C9.03685 1.15104 9.35332 1.24948 9.5643 1.33153C9.82445 1.42759 10.0613 1.57996 10.2535 1.77922C10.4527 1.9738 10.6051 2.20823 10.7012 2.46847C10.7833 2.67945 10.8817 2.99821 10.9075 3.58197C10.9357 4.2149 10.9427 4.40473 10.9427 6.00584C10.9427 7.60695 10.9357 7.79449 10.9075 8.42743Z" fill="#6EE9CB"/>
<path d="M6.02245 2.91846C4.32061 2.91846 2.93982 4.29916 2.93982 6.00109C2.93982 7.70302 4.32061 9.08372 6.02245 9.08372C7.72438 9.08372 9.10509 7.70302 9.10509 6.00109C9.10509 4.29916 7.72438 2.91846 6.02245 2.91846ZM6.02245 8.00072C4.91839 8.00072 4.02283 7.10525 4.02283 6.00109C4.02283 4.89693 4.91839 4.00146 6.02245 4.00146C7.12661 4.00146 8.02208 4.89693 8.02208 6.00109C8.02208 7.10525 7.12661 8.00072 6.02245 8.00072Z" fill="#6EE9CB"/>
<path d="M9.94648 2.7968C9.94648 3.19422 9.62424 3.51646 9.22673 3.51646C8.82932 3.51646 8.50708 3.19422 8.50708 2.7968C8.50708 2.39929 8.82932 2.07715 9.22673 2.07715C9.62424 2.07715 9.94648 2.39929 9.94648 2.7968Z" fill="#6EE9CB"/>
</g>
<defs>
<clipPath id="clip0">
<rect width="12" height="12" fill="white"/>
</clipPath>
</defs>
</svg>
