<svg width="570" height="305" viewBox="0 0 570 305" fill="none" xmlns="http://www.w3.org/2000/svg">
<path d="M84.2929 239.707C84.6834 240.098 85.3166 240.098 85.7071 239.707L92.0711 233.343C92.4616 232.953 92.4616 232.319 92.0711 231.929C91.6806 231.538 91.0474 231.538 90.6569 231.929L85 237.586L79.3432 231.929C78.9526 231.538 78.3195 231.538 77.9289 231.929C77.5384 232.319 77.5384 232.953 77.9289 233.343L84.2929 239.707ZM84 65L84 239L86 239L86 65L84 65Z" fill="#736697"/>
<path d="M285.707 65.2929C285.317 64.9024 284.683 64.9024 284.293 65.2929L277.929 71.6569C277.538 72.0474 277.538 72.6805 277.929 73.0711C278.319 73.4616 278.953 73.4616 279.343 73.0711L285 67.4142L290.657 73.0711C291.047 73.4616 291.681 73.4616 292.071 73.0711C292.462 72.6805 292.462 72.0474 292.071 71.6569L285.707 65.2929ZM286 240L286 66L284 66L284 240L286 240Z" fill="#51C1B4"/>
<path d="M485.707 65.2929C485.317 64.9024 484.683 64.9024 484.293 65.2929L477.929 71.6569C477.538 72.0474 477.538 72.6805 477.929 73.0711C478.319 73.4616 478.953 73.4616 479.343 73.0711L485 67.4142L490.657 73.0711C491.047 73.4616 491.681 73.4616 492.071 73.0711C492.462 72.6805 492.462 72.0474 492.071 71.6569L485.707 65.2929ZM486 240L486 66L484 66L484 240L486 240Z" fill="#51C1B4"/>
<rect width="570" height="65" transform="matrix(1 0 0 -1 0 65)" fill="#E8ECF1"/>
<rect width="570" height="2" transform="matrix(1 0 0 -1 0 65)" fill="#736697"/>
<rect width="570" height="65" transform="matrix(1 0 0 -1 0 305)" fill="#E8ECF1"/>
<rect width="170" height="95" transform="matrix(1 0 0 -1 0 200)" fill="#E7D0E3"/>
<rect width="170" height="95" transform="matrix(1 0 0 -1 200 200)" fill="#E7D0E3"/>
<rect width="170" height="95" transform="matrix(1 0 0 -1 400 200)" fill="#E7D0E3"/>
<rect width="570" height="2" transform="matrix(1 0 0 -1 0 242)" fill="#51C1B4"/>
<path d="M252.258 38H254.85V26.8H252.258V38ZM262.564 29.264C261.396 29.264 260.388 29.664 259.716 30.4V29.392H257.332V38H259.828V33.744C259.828 32.16 260.692 31.424 261.892 31.424C262.996 31.424 263.636 32.064 263.636 33.456V38H266.132V33.072C266.132 30.448 264.596 29.264 262.564 29.264ZM274.382 29.392L271.918 35.248L269.534 29.392H266.958L270.574 38H273.15L276.782 29.392H274.382ZM285.998 33.728C285.998 30.96 284.046 29.264 281.518 29.264C278.894 29.264 276.926 31.12 276.926 33.696C276.926 36.256 278.862 38.128 281.838 38.128C283.39 38.128 284.59 37.648 285.39 36.736L284.062 35.296C283.47 35.856 282.814 36.128 281.902 36.128C280.59 36.128 279.678 35.472 279.438 34.4H285.95C285.966 34.192 285.998 33.92 285.998 33.728ZM281.534 31.152C282.654 31.152 283.47 31.856 283.646 32.944H279.406C279.582 31.84 280.398 31.152 281.534 31.152ZM290.556 38.128C293.132 38.128 294.62 36.992 294.62 35.392C294.62 32 289.42 33.424 289.42 31.952C289.42 31.504 289.9 31.152 291.02 31.152C291.804 31.152 292.652 31.312 293.5 31.792L294.332 30.016C293.516 29.536 292.204 29.264 291.02 29.264C288.508 29.264 287.036 30.416 287.036 32.048C287.036 35.488 292.236 34.048 292.236 35.456C292.236 35.936 291.804 36.24 290.652 36.24C289.596 36.24 288.428 35.904 287.66 35.408L286.828 37.2C287.628 37.728 289.1 38.128 290.556 38.128ZM301.04 35.824C300.768 36.032 300.4 36.144 300.032 36.144C299.36 36.144 298.96 35.744 298.96 35.008V31.504H301.104V29.584H298.96V27.488H296.464V29.584H295.136V31.504H296.464V35.04C296.464 37.088 297.648 38.128 299.68 38.128C300.448 38.128 301.2 37.952 301.712 37.584L301.04 35.824ZM306.943 38.128C309.679 38.128 311.663 36.288 311.663 33.696C311.663 31.104 309.679 29.264 306.943 29.264C304.207 29.264 302.207 31.104 302.207 33.696C302.207 36.288 304.207 38.128 306.943 38.128ZM306.943 36.08C305.695 36.08 304.735 35.184 304.735 33.696C304.735 32.208 305.695 31.312 306.943 31.312C308.191 31.312 309.135 32.208 309.135 33.696C309.135 35.184 308.191 36.08 306.943 36.08ZM315.716 30.528V29.392H313.332V38H315.828V33.936C315.828 32.288 316.74 31.536 318.116 31.536C318.308 31.536 318.468 31.552 318.676 31.568V29.264C317.348 29.264 316.324 29.696 315.716 30.528Z" fill="#605481"/>
<path d="M159.708 272.176C160.62 271.696 161.196 270.832 161.196 269.712C161.196 267.968 159.756 266.8 156.956 266.8H151.484V278H157.276C160.22 278 161.756 276.88 161.756 274.944C161.756 273.536 160.956 272.576 159.708 272.176ZM156.636 268.752C157.9 268.752 158.588 269.184 158.588 270.064C158.588 270.944 157.9 271.392 156.636 271.392H154.06V268.752H156.636ZM157.084 276.048H154.06V273.28H157.084C158.428 273.28 159.148 273.728 159.148 274.672C159.148 275.632 158.428 276.048 157.084 276.048ZM167.639 278.128C170.375 278.128 172.359 276.288 172.359 273.696C172.359 271.104 170.375 269.264 167.639 269.264C164.903 269.264 162.903 271.104 162.903 273.696C162.903 276.288 164.903 278.128 167.639 278.128ZM167.639 276.08C166.391 276.08 165.431 275.184 165.431 273.696C165.431 272.208 166.391 271.312 167.639 271.312C168.887 271.312 169.831 272.208 169.831 273.696C169.831 275.184 168.887 276.08 167.639 276.08ZM176.411 270.528V269.392H174.027V278H176.523V273.936C176.523 272.288 177.435 271.536 178.811 271.536C179.003 271.536 179.163 271.552 179.371 271.568V269.264C178.043 269.264 177.019 269.696 176.411 270.528ZM183.239 270.528V269.392H180.855V278H183.351V273.936C183.351 272.288 184.263 271.536 185.639 271.536C185.831 271.536 185.991 271.552 186.199 271.568V269.264C184.871 269.264 183.847 269.696 183.239 270.528ZM191.701 278.128C194.437 278.128 196.421 276.288 196.421 273.696C196.421 271.104 194.437 269.264 191.701 269.264C188.965 269.264 186.965 271.104 186.965 273.696C186.965 276.288 188.965 278.128 191.701 278.128ZM191.701 276.08C190.453 276.08 189.493 275.184 189.493 273.696C189.493 272.208 190.453 271.312 191.701 271.312C192.949 271.312 193.893 272.208 193.893 273.696C193.893 275.184 192.949 276.08 191.701 276.08ZM209.471 269.392L207.375 275.216L205.327 269.392H203.215L201.103 275.216L199.071 269.392H196.719L199.823 278H202.223L204.223 272.656L206.159 278H208.559L211.679 269.392H209.471ZM221.037 273.728C221.037 270.96 219.085 269.264 216.557 269.264C213.933 269.264 211.965 271.12 211.965 273.696C211.965 276.256 213.901 278.128 216.877 278.128C218.429 278.128 219.629 277.648 220.429 276.736L219.101 275.296C218.509 275.856 217.853 276.128 216.941 276.128C215.629 276.128 214.717 275.472 214.477 274.4H220.989C221.005 274.192 221.037 273.92 221.037 273.728ZM216.573 271.152C217.693 271.152 218.509 271.856 218.685 272.944H214.445C214.621 271.84 215.437 271.152 216.573 271.152ZM225.083 270.528V269.392H222.699V278H225.195V273.936C225.195 272.288 226.107 271.536 227.483 271.536C227.675 271.536 227.835 271.552 228.043 271.568V269.264C226.715 269.264 225.691 269.696 225.083 270.528ZM230.627 272.384C231.491 272.384 232.179 271.728 232.179 270.816C232.179 269.888 231.491 269.28 230.627 269.28C229.763 269.28 229.075 269.888 229.075 270.816C229.075 271.728 229.763 272.384 230.627 272.384ZM230.627 278.128C231.491 278.128 232.179 277.472 232.179 276.56C232.179 275.632 231.491 275.024 230.627 275.024C229.763 275.024 229.075 275.632 229.075 276.56C229.075 277.472 229.763 278.128 230.627 278.128ZM251.202 278L251.17 266.8H249.042L244.914 273.76L240.722 266.8H238.578V278H241.01V271.424L244.29 276.816H245.458L248.754 271.28L248.77 278H251.202ZM257.779 278.128C260.515 278.128 262.499 276.288 262.499 273.696C262.499 271.104 260.515 269.264 257.779 269.264C255.043 269.264 253.043 271.104 253.043 273.696C253.043 276.288 255.043 278.128 257.779 278.128ZM257.779 276.08C256.531 276.08 255.571 275.184 255.571 273.696C255.571 272.208 256.531 271.312 257.779 271.312C259.027 271.312 259.971 272.208 259.971 273.696C259.971 275.184 259.027 276.08 257.779 276.08ZM266.552 270.528V269.392H264.168V278H266.664V273.936C266.664 272.288 267.576 271.536 268.952 271.536C269.144 271.536 269.304 271.552 269.512 271.568V269.264C268.184 269.264 267.16 269.696 266.552 270.528ZM276.173 275.824C275.901 276.032 275.533 276.144 275.165 276.144C274.493 276.144 274.093 275.744 274.093 275.008V271.504H276.237V269.584H274.093V267.488H271.597V269.584H270.269V271.504H271.597V275.04C271.597 277.088 272.781 278.128 274.813 278.128C275.581 278.128 276.333 277.952 276.845 277.584L276.173 275.824ZM284.492 269.392V270.496C283.836 269.664 282.844 269.264 281.644 269.264C279.26 269.264 277.34 270.912 277.34 273.424C277.34 275.936 279.26 277.584 281.644 277.584C282.764 277.584 283.708 277.232 284.364 276.512V276.88C284.364 278.432 283.596 279.232 281.836 279.232C280.732 279.232 279.532 278.848 278.796 278.256L277.804 280.048C278.812 280.832 280.396 281.232 282.028 281.232C285.132 281.232 286.86 279.76 286.86 276.56V269.392H284.492ZM282.14 275.536C280.828 275.536 279.868 274.688 279.868 273.424C279.868 272.16 280.828 271.312 282.14 271.312C283.452 271.312 284.396 272.16 284.396 273.424C284.396 274.688 283.452 275.536 282.14 275.536ZM292.655 269.264C291.279 269.264 289.887 269.632 288.943 270.304L289.839 272.048C290.463 271.552 291.407 271.248 292.319 271.248C293.663 271.248 294.303 271.872 294.303 272.944H292.319C289.695 272.944 288.623 274 288.623 275.52C288.623 277.008 289.823 278.128 291.839 278.128C293.103 278.128 293.999 277.712 294.463 276.928V278H296.799V273.088C296.799 270.48 295.279 269.264 292.655 269.264ZM292.463 276.448C291.583 276.448 291.055 276.032 291.055 275.408C291.055 274.832 291.423 274.4 292.591 274.4H294.303V275.28C294.015 276.064 293.295 276.448 292.463 276.448ZM305.664 269.392V270.496C305.008 269.664 304.016 269.264 302.816 269.264C300.432 269.264 298.512 270.912 298.512 273.424C298.512 275.936 300.432 277.584 302.816 277.584C303.936 277.584 304.88 277.232 305.536 276.512V276.88C305.536 278.432 304.768 279.232 303.008 279.232C301.904 279.232 300.704 278.848 299.968 278.256L298.976 280.048C299.984 280.832 301.568 281.232 303.2 281.232C306.304 281.232 308.032 279.76 308.032 276.56V269.392H305.664ZM303.312 275.536C302 275.536 301.04 274.688 301.04 273.424C301.04 272.16 302 271.312 303.312 271.312C304.624 271.312 305.568 272.16 305.568 273.424C305.568 274.688 304.624 275.536 303.312 275.536ZM318.787 273.728C318.787 270.96 316.835 269.264 314.307 269.264C311.683 269.264 309.715 271.12 309.715 273.696C309.715 276.256 311.651 278.128 314.627 278.128C316.179 278.128 317.379 277.648 318.179 276.736L316.851 275.296C316.259 275.856 315.603 276.128 314.691 276.128C313.379 276.128 312.467 275.472 312.227 274.4H318.739C318.755 274.192 318.787 273.92 318.787 273.728ZM314.323 271.152C315.443 271.152 316.259 271.856 316.435 272.944H312.195C312.371 271.84 313.187 271.152 314.323 271.152ZM325.156 278H327.748V266.8H325.156V278ZM335.462 269.264C334.294 269.264 333.286 269.664 332.614 270.4V269.392H330.23V278H332.726V273.744C332.726 272.16 333.59 271.424 334.79 271.424C335.894 271.424 336.534 272.064 336.534 273.456V278H339.03V273.072C339.03 270.448 337.494 269.264 335.462 269.264ZM347.28 269.392L344.816 275.248L342.432 269.392H339.856L343.472 278H346.048L349.68 269.392H347.28ZM358.897 273.728C358.897 270.96 356.945 269.264 354.417 269.264C351.793 269.264 349.825 271.12 349.825 273.696C349.825 276.256 351.761 278.128 354.737 278.128C356.289 278.128 357.489 277.648 358.289 276.736L356.961 275.296C356.369 275.856 355.713 276.128 354.801 276.128C353.489 276.128 352.577 275.472 352.337 274.4H358.849C358.865 274.192 358.897 273.92 358.897 273.728ZM354.433 271.152C355.553 271.152 356.369 271.856 356.545 272.944H352.305C352.481 271.84 353.297 271.152 354.433 271.152ZM363.454 278.128C366.03 278.128 367.518 276.992 367.518 275.392C367.518 272 362.318 273.424 362.318 271.952C362.318 271.504 362.798 271.152 363.918 271.152C364.702 271.152 365.55 271.312 366.398 271.792L367.23 270.016C366.414 269.536 365.102 269.264 363.918 269.264C361.406 269.264 359.934 270.416 359.934 272.048C359.934 275.488 365.134 274.048 365.134 275.456C365.134 275.936 364.702 276.24 363.55 276.24C362.494 276.24 361.326 275.904 360.558 275.408L359.726 277.2C360.526 277.728 361.998 278.128 363.454 278.128ZM373.938 275.824C373.666 276.032 373.298 276.144 372.93 276.144C372.258 276.144 371.858 275.744 371.858 275.008V271.504H374.002V269.584H371.858V267.488H369.362V269.584H368.034V271.504H369.362V275.04C369.362 277.088 370.546 278.128 372.578 278.128C373.346 278.128 374.098 277.952 374.61 277.584L373.938 275.824ZM387.035 269.264C385.739 269.264 384.619 269.792 383.931 270.672C383.323 269.728 382.299 269.264 381.099 269.264C379.995 269.264 379.035 269.648 378.395 270.384V269.392H376.011V278H378.507V273.68C378.507 272.144 379.291 271.424 380.395 271.424C381.435 271.424 382.027 272.064 382.027 273.456V278H384.523V273.68C384.523 272.144 385.307 271.424 386.427 271.424C387.435 271.424 388.059 272.064 388.059 273.456V278H390.555V273.072C390.555 270.448 389.083 269.264 387.035 269.264ZM401.318 273.728C401.318 270.96 399.366 269.264 396.838 269.264C394.214 269.264 392.246 271.12 392.246 273.696C392.246 276.256 394.182 278.128 397.158 278.128C398.71 278.128 399.91 277.648 400.71 276.736L399.382 275.296C398.79 275.856 398.134 276.128 397.222 276.128C395.91 276.128 394.998 275.472 394.758 274.4H401.27C401.286 274.192 401.318 273.92 401.318 273.728ZM396.854 271.152C397.974 271.152 398.79 271.856 398.966 272.944H394.726C394.902 271.84 395.718 271.152 396.854 271.152ZM408.212 269.264C407.044 269.264 406.036 269.664 405.364 270.4V269.392H402.98V278H405.476V273.744C405.476 272.16 406.34 271.424 407.54 271.424C408.644 271.424 409.284 272.064 409.284 273.456V278H411.78V273.072C411.78 270.448 410.244 269.264 408.212 269.264ZM418.923 275.824C418.651 276.032 418.283 276.144 417.915 276.144C417.243 276.144 416.843 275.744 416.843 275.008V271.504H418.987V269.584H416.843V267.488H414.347V269.584H413.019V271.504H414.347V275.04C414.347 277.088 415.531 278.128 417.563 278.128C418.331 278.128 419.083 277.952 419.595 277.584L418.923 275.824Z" fill="#605481"/>
<path d="M43.0861 135.192C46.2861 135.192 47.8381 133.592 47.8381 131.72C47.8381 127.608 41.3261 129.032 41.3261 126.968C41.3261 126.264 41.9181 125.688 43.4541 125.688C44.4461 125.688 45.5181 125.976 46.5581 126.568L47.3581 124.6C46.3181 123.944 44.8781 123.608 43.4701 123.608C40.2861 123.608 38.7501 125.192 38.7501 127.096C38.7501 131.256 45.2621 129.816 45.2621 131.912C45.2621 132.6 44.6381 133.112 43.1021 133.112C41.7581 133.112 40.3501 132.632 39.4061 131.944L38.5261 133.896C39.5181 134.664 41.3101 135.192 43.0861 135.192ZM55.421 126.392L52.989 132.232L50.573 126.392H47.997L51.725 135.064L51.693 135.144C51.357 135.912 50.973 136.216 50.285 136.216C49.789 136.216 49.261 136.008 48.877 135.672L47.965 137.448C48.525 137.944 49.485 138.232 50.365 138.232C51.917 138.232 53.101 137.608 53.933 135.528L57.821 126.392H55.421ZM64.0715 126.264C62.9035 126.264 61.8955 126.664 61.2235 127.4V126.392H58.8395V135H61.3355V130.744C61.3355 129.16 62.1995 128.424 63.3995 128.424C64.5035 128.424 65.1435 129.064 65.1435 130.456V135H67.6395V130.072C67.6395 127.448 66.1035 126.264 64.0715 126.264ZM76.2678 123.128V127.304C75.6438 126.6 74.7478 126.264 73.6918 126.264C71.2598 126.264 69.3878 127.992 69.3878 130.696C69.3878 133.4 71.2598 135.128 73.6918 135.128C74.8438 135.128 75.7558 134.76 76.3798 134.008V135H78.7638V123.128H76.2678ZM74.1238 133.08C72.8758 133.08 71.9158 132.184 71.9158 130.696C71.9158 129.208 72.8758 128.312 74.1238 128.312C75.3558 128.312 76.3158 129.208 76.3158 130.696C76.3158 132.184 75.3558 133.08 74.1238 133.08ZM82.3219 125.192C83.2499 125.192 83.8739 124.584 83.8739 123.752C83.8739 122.984 83.2499 122.408 82.3219 122.408C81.3939 122.408 80.7699 123.016 80.7699 123.8C80.7699 124.584 81.3939 125.192 82.3219 125.192ZM81.0739 135H83.5699V126.392H81.0739V135ZM90.0464 135.128C91.8544 135.128 93.2784 134.328 93.9024 132.952L91.9664 131.896C91.5024 132.728 90.8144 133.08 90.0304 133.08C88.7664 133.08 87.7744 132.2 87.7744 130.696C87.7744 129.192 88.7664 128.312 90.0304 128.312C90.8144 128.312 91.5024 128.68 91.9664 129.496L93.9024 128.456C93.2784 127.048 91.8544 126.264 90.0464 126.264C87.2464 126.264 85.2464 128.104 85.2464 130.696C85.2464 133.288 87.2464 135.128 90.0464 135.128ZM98.8115 126.264C97.4355 126.264 96.0435 126.632 95.0995 127.304L95.9955 129.048C96.6195 128.552 97.5635 128.248 98.4755 128.248C99.8195 128.248 100.46 128.872 100.46 129.944H98.4755C95.8515 129.944 94.7795 131 94.7795 132.52C94.7795 134.008 95.9795 135.128 97.9955 135.128C99.2595 135.128 100.156 134.712 100.62 133.928V135H102.956V130.088C102.956 127.48 101.436 126.264 98.8115 126.264ZM98.6195 133.448C97.7395 133.448 97.2115 133.032 97.2115 132.408C97.2115 131.832 97.5795 131.4 98.7475 131.4H100.46V132.28C100.172 133.064 99.4515 133.448 98.6195 133.448ZM110.095 132.824C109.823 133.032 109.455 133.144 109.087 133.144C108.415 133.144 108.015 132.744 108.015 132.008V128.504H110.159V126.584H108.015V124.488H105.519V126.584H104.191V128.504H105.519V132.04C105.519 134.088 106.703 135.128 108.735 135.128C109.503 135.128 110.255 134.952 110.767 134.584L110.095 132.824ZM120.334 130.728C120.334 127.96 118.382 126.264 115.854 126.264C113.23 126.264 111.262 128.12 111.262 130.696C111.262 133.256 113.198 135.128 116.174 135.128C117.726 135.128 118.926 134.648 119.726 133.736L118.398 132.296C117.806 132.856 117.15 133.128 116.238 133.128C114.926 133.128 114.014 132.472 113.774 131.4H120.286C120.302 131.192 120.334 130.92 120.334 130.728ZM115.87 128.152C116.99 128.152 117.806 128.856 117.982 129.944H113.742C113.918 128.84 114.734 128.152 115.87 128.152ZM128.268 123.128V127.304C127.644 126.6 126.748 126.264 125.692 126.264C123.26 126.264 121.388 127.992 121.388 130.696C121.388 133.4 123.26 135.128 125.692 135.128C126.844 135.128 127.756 134.76 128.38 134.008V135H130.764V123.128H128.268ZM126.124 133.08C124.876 133.08 123.916 132.184 123.916 130.696C123.916 129.208 124.876 128.312 126.124 128.312C127.356 128.312 128.316 129.208 128.316 130.696C128.316 132.184 127.356 133.08 126.124 133.08ZM55.3557 151.264C54.0597 151.264 52.9397 151.792 52.2517 152.672C51.6437 151.728 50.6197 151.264 49.4197 151.264C48.3157 151.264 47.3557 151.648 46.7157 152.384V151.392H44.3317V160H46.8277V155.68C46.8277 154.144 47.6117 153.424 48.7157 153.424C49.7557 153.424 50.3477 154.064 50.3477 155.456V160H52.8437V155.68C52.8437 154.144 53.6277 153.424 54.7477 153.424C55.7557 153.424 56.3797 154.064 56.3797 155.456V160H58.8757V155.072C58.8757 152.448 57.4037 151.264 55.3557 151.264ZM65.3027 160.128C68.0387 160.128 70.0227 158.288 70.0227 155.696C70.0227 153.104 68.0387 151.264 65.3027 151.264C62.5667 151.264 60.5667 153.104 60.5667 155.696C60.5667 158.288 62.5667 160.128 65.3027 160.128ZM65.3027 158.08C64.0547 158.08 63.0947 157.184 63.0947 155.696C63.0947 154.208 64.0547 153.312 65.3027 153.312C66.5507 153.312 67.4947 154.208 67.4947 155.696C67.4947 157.184 66.5507 158.08 65.3027 158.08ZM74.0751 152.528V151.392H71.6911V160H74.1871V155.936C74.1871 154.288 75.0991 153.536 76.4751 153.536C76.6671 153.536 76.8271 153.552 77.0351 153.568V151.264C75.7071 151.264 74.6831 151.696 74.0751 152.528ZM83.6961 157.824C83.4241 158.032 83.0561 158.144 82.6881 158.144C82.0161 158.144 81.6161 157.744 81.6161 157.008V153.504H83.7601V151.584H81.6161V149.488H79.1201V151.584H77.7921V153.504H79.1201V157.04C79.1201 159.088 80.3041 160.128 82.3361 160.128C83.1041 160.128 83.8561 159.952 84.3681 159.584L83.6961 157.824ZM92.0156 151.392V152.496C91.3596 151.664 90.3676 151.264 89.1676 151.264C86.7836 151.264 84.8636 152.912 84.8636 155.424C84.8636 157.936 86.7836 159.584 89.1676 159.584C90.2876 159.584 91.2316 159.232 91.8876 158.512V158.88C91.8876 160.432 91.1196 161.232 89.3596 161.232C88.2556 161.232 87.0556 160.848 86.3196 160.256L85.3276 162.048C86.3356 162.832 87.9196 163.232 89.5516 163.232C92.6556 163.232 94.3836 161.76 94.3836 158.56V151.392H92.0156ZM89.6636 157.536C88.3516 157.536 87.3916 156.688 87.3916 155.424C87.3916 154.16 88.3516 153.312 89.6636 153.312C90.9756 153.312 91.9196 154.16 91.9196 155.424C91.9196 156.688 90.9756 157.536 89.6636 157.536ZM100.179 151.264C98.8027 151.264 97.4107 151.632 96.4667 152.304L97.3627 154.048C97.9867 153.552 98.9307 153.248 99.8427 153.248C101.187 153.248 101.827 153.872 101.827 154.944H99.8427C97.2187 154.944 96.1467 156 96.1467 157.52C96.1467 159.008 97.3467 160.128 99.3627 160.128C100.627 160.128 101.523 159.712 101.987 158.928V160H104.323V155.088C104.323 152.48 102.803 151.264 100.179 151.264ZM99.9867 158.448C99.1067 158.448 98.5787 158.032 98.5787 157.408C98.5787 156.832 98.9467 156.4 100.115 156.4H101.827V157.28C101.539 158.064 100.819 158.448 99.9867 158.448ZM113.187 151.392V152.496C112.531 151.664 111.539 151.264 110.339 151.264C107.955 151.264 106.035 152.912 106.035 155.424C106.035 157.936 107.955 159.584 110.339 159.584C111.459 159.584 112.403 159.232 113.059 158.512V158.88C113.059 160.432 112.291 161.232 110.531 161.232C109.427 161.232 108.227 160.848 107.491 160.256L106.499 162.048C107.507 162.832 109.091 163.232 110.723 163.232C113.827 163.232 115.555 161.76 115.555 158.56V151.392H113.187ZM110.835 157.536C109.523 157.536 108.563 156.688 108.563 155.424C108.563 154.16 109.523 153.312 110.835 153.312C112.147 153.312 113.091 154.16 113.091 155.424C113.091 156.688 112.147 157.536 110.835 157.536ZM126.311 155.728C126.311 152.96 124.359 151.264 121.831 151.264C119.207 151.264 117.239 153.12 117.239 155.696C117.239 158.256 119.175 160.128 122.151 160.128C123.703 160.128 124.903 159.648 125.703 158.736L124.375 157.296C123.783 157.856 123.127 158.128 122.215 158.128C120.903 158.128 119.991 157.472 119.751 156.4H126.263C126.279 156.192 126.311 155.92 126.311 155.728ZM121.847 153.152C122.967 153.152 123.783 153.856 123.959 154.944H119.719C119.895 153.84 120.711 153.152 121.847 153.152ZM54.372 175.192C55.3 175.192 55.924 174.584 55.924 173.752C55.924 172.984 55.3 172.408 54.372 172.408C53.444 172.408 52.82 173.016 52.82 173.8C52.82 174.584 53.444 175.192 54.372 175.192ZM49.524 174.968C49.908 174.968 50.26 175.08 50.532 175.272L51.188 173.464C50.724 173.144 49.988 173 49.284 173C47.14 173 45.956 174.264 45.956 176.2V176.584H44.628V178.504H45.956V185H48.452V178.504H50.596V176.584H48.388V176.216C48.388 175.368 48.788 174.968 49.524 174.968ZM53.124 185H55.62V176.392H53.124V185ZM63.1653 176.264C61.9973 176.264 60.9893 176.664 60.3173 177.4V176.392H57.9333V185H60.4293V180.744C60.4293 179.16 61.2933 178.424 62.4933 178.424C63.5973 178.424 64.2373 179.064 64.2373 180.456V185H66.7333V180.072C66.7333 177.448 65.1973 176.264 63.1653 176.264ZM72.4678 176.264C71.0918 176.264 69.6998 176.632 68.7558 177.304L69.6518 179.048C70.2758 178.552 71.2198 178.248 72.1318 178.248C73.4758 178.248 74.1158 178.872 74.1158 179.944H72.1318C69.5078 179.944 68.4358 181 68.4358 182.52C68.4358 184.008 69.6358 185.128 71.6518 185.128C72.9158 185.128 73.8118 184.712 74.2758 183.928V185H76.6118V180.088C76.6118 177.48 75.0918 176.264 72.4678 176.264ZM72.2758 183.448C71.3958 183.448 70.8678 183.032 70.8678 182.408C70.8678 181.832 71.2358 181.4 72.4038 181.4H74.1158V182.28C73.8278 183.064 73.1078 183.448 72.2758 183.448ZM84.1028 176.264C82.9348 176.264 81.9268 176.664 81.2548 177.4V176.392H78.8708V185H81.3668V180.744C81.3668 179.16 82.2308 178.424 83.4308 178.424C84.5348 178.424 85.1748 179.064 85.1748 180.456V185H87.6708V180.072C87.6708 177.448 86.1348 176.264 84.1028 176.264ZM94.187 185.128C95.995 185.128 97.419 184.328 98.043 182.952L96.107 181.896C95.643 182.728 94.955 183.08 94.171 183.08C92.907 183.08 91.915 182.2 91.915 180.696C91.915 179.192 92.907 178.312 94.171 178.312C94.955 178.312 95.643 178.68 96.107 179.496L98.043 178.456C97.419 177.048 95.995 176.264 94.187 176.264C91.387 176.264 89.387 178.104 89.387 180.696C89.387 183.288 91.387 185.128 94.187 185.128ZM100.728 175.192C101.656 175.192 102.28 174.584 102.28 173.752C102.28 172.984 101.656 172.408 100.728 172.408C99.8001 172.408 99.1761 173.016 99.1761 173.8C99.1761 174.584 99.8001 175.192 100.728 175.192ZM99.4801 185H101.976V176.392H99.4801V185ZM109.525 176.264C108.357 176.264 107.349 176.664 106.677 177.4V176.392H104.293V185H106.789V180.744C106.789 179.16 107.653 178.424 108.853 178.424C109.957 178.424 110.597 179.064 110.597 180.456V185H113.093V180.072C113.093 177.448 111.557 176.264 109.525 176.264ZM121.961 176.392V177.496C121.305 176.664 120.313 176.264 119.113 176.264C116.729 176.264 114.809 177.912 114.809 180.424C114.809 182.936 116.729 184.584 119.113 184.584C120.233 184.584 121.177 184.232 121.833 183.512V183.88C121.833 185.432 121.065 186.232 119.305 186.232C118.201 186.232 117.001 185.848 116.265 185.256L115.273 187.048C116.281 187.832 117.865 188.232 119.497 188.232C122.601 188.232 124.329 186.76 124.329 183.56V176.392H121.961ZM119.609 182.536C118.297 182.536 117.337 181.688 117.337 180.424C117.337 179.16 118.297 178.312 119.609 178.312C120.921 178.312 121.865 179.16 121.865 180.424C121.865 181.688 120.921 182.536 119.609 182.536Z" fill="#605481"/>
<path d="M253.633 144H256.225V132.8H253.633V144ZM263.939 135.264C262.771 135.264 261.763 135.664 261.091 136.4V135.392H258.707V144H261.203V139.744C261.203 138.16 262.067 137.424 263.267 137.424C264.371 137.424 265.011 138.064 265.011 139.456V144H267.507V139.072C267.507 136.448 265.971 135.264 263.939 135.264ZM274.649 141.824C274.377 142.032 274.009 142.144 273.641 142.144C272.969 142.144 272.569 141.744 272.569 141.008V137.504H274.713V135.584H272.569V133.488H270.073V135.584H268.745V137.504H270.073V141.04C270.073 143.088 271.257 144.128 273.289 144.128C274.057 144.128 274.809 143.952 275.321 143.584L274.649 141.824ZM284.889 139.728C284.889 136.96 282.937 135.264 280.409 135.264C277.785 135.264 275.817 137.12 275.817 139.696C275.817 142.256 277.753 144.128 280.729 144.128C282.281 144.128 283.481 143.648 284.281 142.736L282.953 141.296C282.361 141.856 281.705 142.128 280.793 142.128C279.481 142.128 278.569 141.472 278.329 140.4H284.841C284.857 140.192 284.889 139.92 284.889 139.728ZM280.425 137.152C281.545 137.152 282.361 137.856 282.537 138.944H278.297C278.473 137.84 279.289 137.152 280.425 137.152ZM288.934 136.528V135.392H286.55V144H289.046V139.936C289.046 138.288 289.958 137.536 291.334 137.536C291.526 137.536 291.686 137.552 291.894 137.568V135.264C290.566 135.264 289.542 135.696 288.934 136.528ZM301.732 139.728C301.732 136.96 299.78 135.264 297.252 135.264C294.628 135.264 292.66 137.12 292.66 139.696C292.66 142.256 294.596 144.128 297.572 144.128C299.124 144.128 300.324 143.648 301.124 142.736L299.796 141.296C299.204 141.856 298.548 142.128 297.636 142.128C296.324 142.128 295.412 141.472 295.172 140.4H301.684C301.7 140.192 301.732 139.92 301.732 139.728ZM297.268 137.152C298.388 137.152 299.204 137.856 299.38 138.944H295.14C295.316 137.84 296.132 137.152 297.268 137.152ZM306.29 144.128C308.866 144.128 310.354 142.992 310.354 141.392C310.354 138 305.154 139.424 305.154 137.952C305.154 137.504 305.634 137.152 306.754 137.152C307.538 137.152 308.386 137.312 309.234 137.792L310.066 136.016C309.25 135.536 307.938 135.264 306.754 135.264C304.242 135.264 302.77 136.416 302.77 138.048C302.77 141.488 307.97 140.048 307.97 141.456C307.97 141.936 307.538 142.24 306.386 142.24C305.33 142.24 304.162 141.904 303.394 141.408L302.562 143.2C303.362 143.728 304.834 144.128 306.29 144.128ZM316.774 141.824C316.502 142.032 316.134 142.144 315.766 142.144C315.094 142.144 314.694 141.744 314.694 141.008V137.504H316.838V135.584H314.694V133.488H312.198V135.584H310.87V137.504H312.198V141.04C312.198 143.088 313.382 144.128 315.414 144.128C316.182 144.128 316.934 143.952 317.446 143.584L316.774 141.824ZM249.404 160.264C248.252 160.264 247.324 160.632 246.7 161.384V160.392H244.316V172.104H246.812V168.088C247.452 168.792 248.332 169.128 249.404 169.128C251.82 169.128 253.692 167.4 253.692 164.696C253.692 161.992 251.82 160.264 249.404 160.264ZM248.972 167.08C247.724 167.08 246.78 166.184 246.78 164.696C246.78 163.208 247.724 162.312 248.972 162.312C250.22 162.312 251.164 163.208 251.164 164.696C251.164 166.184 250.22 167.08 248.972 167.08ZM258.694 160.264C257.318 160.264 255.926 160.632 254.982 161.304L255.878 163.048C256.502 162.552 257.446 162.248 258.358 162.248C259.702 162.248 260.342 162.872 260.342 163.944H258.358C255.734 163.944 254.662 165 254.662 166.52C254.662 168.008 255.862 169.128 257.878 169.128C259.142 169.128 260.038 168.712 260.502 167.928V169H262.838V164.088C262.838 161.48 261.318 160.264 258.694 160.264ZM258.502 167.448C257.622 167.448 257.094 167.032 257.094 166.408C257.094 165.832 257.462 165.4 258.63 165.4H260.342V166.28C260.054 167.064 259.334 167.448 258.502 167.448ZM271.085 160.392L268.653 166.232L266.237 160.392H263.661L267.389 169.064L267.357 169.144C267.021 169.912 266.637 170.216 265.949 170.216C265.453 170.216 264.925 170.008 264.541 169.672L263.629 171.448C264.189 171.944 265.149 172.232 266.029 172.232C267.581 172.232 268.765 171.608 269.597 169.528L273.485 160.392H271.085ZM285.528 160.264C284.232 160.264 283.112 160.792 282.424 161.672C281.816 160.728 280.792 160.264 279.592 160.264C278.488 160.264 277.528 160.648 276.888 161.384V160.392H274.504V169H277V164.68C277 163.144 277.784 162.424 278.888 162.424C279.928 162.424 280.52 163.064 280.52 164.456V169H283.016V164.68C283.016 163.144 283.8 162.424 284.92 162.424C285.928 162.424 286.552 163.064 286.552 164.456V169H289.048V164.072C289.048 161.448 287.576 160.264 285.528 160.264ZM299.811 164.728C299.811 161.96 297.859 160.264 295.331 160.264C292.707 160.264 290.739 162.12 290.739 164.696C290.739 167.256 292.675 169.128 295.651 169.128C297.203 169.128 298.403 168.648 299.203 167.736L297.875 166.296C297.283 166.856 296.627 167.128 295.715 167.128C294.403 167.128 293.491 166.472 293.251 165.4H299.763C299.779 165.192 299.811 164.92 299.811 164.728ZM295.347 162.152C296.467 162.152 297.283 162.856 297.459 163.944H293.219C293.395 162.84 294.211 162.152 295.347 162.152ZM306.704 160.264C305.536 160.264 304.528 160.664 303.856 161.4V160.392H301.472V169H303.968V164.744C303.968 163.16 304.832 162.424 306.032 162.424C307.136 162.424 307.776 163.064 307.776 164.456V169H310.272V164.072C310.272 161.448 308.736 160.264 306.704 160.264ZM317.415 166.824C317.143 167.032 316.775 167.144 316.407 167.144C315.735 167.144 315.335 166.744 315.335 166.008V162.504H317.479V160.584H315.335V158.488H312.839V160.584H311.511V162.504H312.839V166.04C312.839 168.088 314.023 169.128 316.055 169.128C316.823 169.128 317.575 168.952 318.087 168.584L317.415 166.824ZM322.384 169.128C324.96 169.128 326.448 167.992 326.448 166.392C326.448 163 321.248 164.424 321.248 162.952C321.248 162.504 321.728 162.152 322.848 162.152C323.632 162.152 324.48 162.312 325.328 162.792L326.16 161.016C325.344 160.536 324.032 160.264 322.848 160.264C320.336 160.264 318.864 161.416 318.864 163.048C318.864 166.488 324.064 165.048 324.064 166.456C324.064 166.936 323.632 167.24 322.48 167.24C321.424 167.24 320.256 166.904 319.488 166.408L318.656 168.2C319.456 168.728 320.928 169.128 322.384 169.128Z" fill="#605481"/>
<path d="M454.067 132.8H449.219V144H451.811V140.912H454.067C457.059 140.912 458.931 139.36 458.931 136.864C458.931 134.352 457.059 132.8 454.067 132.8ZM453.923 138.8H451.811V134.912H453.923C455.507 134.912 456.307 135.632 456.307 136.864C456.307 138.08 455.507 138.8 453.923 138.8ZM462.989 136.528V135.392H460.605V144H463.101V139.936C463.101 138.288 464.013 137.536 465.389 137.536C465.581 137.536 465.741 137.552 465.949 137.568V135.264C464.621 135.264 463.597 135.696 462.989 136.528ZM468.681 134.192C469.609 134.192 470.233 133.584 470.233 132.752C470.233 131.984 469.609 131.408 468.681 131.408C467.753 131.408 467.129 132.016 467.129 132.8C467.129 133.584 467.753 134.192 468.681 134.192ZM467.433 144H469.929V135.392H467.433V144ZM477.478 135.264C476.31 135.264 475.302 135.664 474.63 136.4V135.392H472.246V144H474.742V139.744C474.742 138.16 475.606 137.424 476.806 137.424C477.91 137.424 478.55 138.064 478.55 139.456V144H481.046V139.072C481.046 136.448 479.51 135.264 477.478 135.264ZM487.562 144.128C489.37 144.128 490.794 143.328 491.418 141.952L489.482 140.896C489.018 141.728 488.33 142.08 487.546 142.08C486.282 142.08 485.29 141.2 485.29 139.696C485.29 138.192 486.282 137.312 487.546 137.312C488.33 137.312 489.018 137.68 489.482 138.496L491.418 137.456C490.794 136.048 489.37 135.264 487.562 135.264C484.762 135.264 482.762 137.104 482.762 139.696C482.762 142.288 484.762 144.128 487.562 144.128ZM494.103 134.192C495.031 134.192 495.655 133.584 495.655 132.752C495.655 131.984 495.031 131.408 494.103 131.408C493.175 131.408 492.551 132.016 492.551 132.8C492.551 133.584 493.175 134.192 494.103 134.192ZM492.855 144H495.351V135.392H492.855V144ZM502.756 135.264C501.604 135.264 500.676 135.632 500.052 136.384V135.392H497.668V147.104H500.164V143.088C500.804 143.792 501.684 144.128 502.756 144.128C505.172 144.128 507.044 142.4 507.044 139.696C507.044 136.992 505.172 135.264 502.756 135.264ZM502.324 142.08C501.076 142.08 500.132 141.184 500.132 139.696C500.132 138.208 501.076 137.312 502.324 137.312C503.572 137.312 504.516 138.208 504.516 139.696C504.516 141.184 503.572 142.08 502.324 142.08ZM512.046 135.264C510.67 135.264 509.278 135.632 508.334 136.304L509.23 138.048C509.854 137.552 510.798 137.248 511.71 137.248C513.054 137.248 513.694 137.872 513.694 138.944H511.71C509.086 138.944 508.014 140 508.014 141.52C508.014 143.008 509.214 144.128 511.23 144.128C512.494 144.128 513.39 143.712 513.854 142.928V144H516.19V139.088C516.19 136.48 514.67 135.264 512.046 135.264ZM511.854 142.448C510.974 142.448 510.446 142.032 510.446 141.408C510.446 140.832 510.814 140.4 511.982 140.4H513.694V141.28C513.406 142.064 512.686 142.448 511.854 142.448ZM518.449 144H520.945V132.128H518.449V144ZM438.278 161.528V160.392H435.894V169H438.39V164.936C438.39 163.288 439.302 162.536 440.678 162.536C440.87 162.536 441.03 162.552 441.238 162.568V160.264C439.91 160.264 438.886 160.696 438.278 161.528ZM451.076 164.728C451.076 161.96 449.124 160.264 446.596 160.264C443.972 160.264 442.004 162.12 442.004 164.696C442.004 167.256 443.94 169.128 446.916 169.128C448.468 169.128 449.668 168.648 450.468 167.736L449.14 166.296C448.548 166.856 447.892 167.128 446.98 167.128C445.668 167.128 444.756 166.472 444.516 165.4H451.028C451.044 165.192 451.076 164.92 451.076 164.728ZM446.612 162.152C447.732 162.152 448.548 162.856 448.724 163.944H444.484C444.66 162.84 445.476 162.152 446.612 162.152ZM457.826 160.264C456.674 160.264 455.746 160.632 455.122 161.384V160.392H452.738V172.104H455.234V168.088C455.874 168.792 456.754 169.128 457.826 169.128C460.242 169.128 462.114 167.4 462.114 164.696C462.114 161.992 460.242 160.264 457.826 160.264ZM457.394 167.08C456.146 167.08 455.202 166.184 455.202 164.696C455.202 163.208 456.146 162.312 457.394 162.312C458.642 162.312 459.586 163.208 459.586 164.696C459.586 166.184 458.642 167.08 457.394 167.08ZM467.116 160.264C465.74 160.264 464.348 160.632 463.404 161.304L464.3 163.048C464.924 162.552 465.868 162.248 466.78 162.248C468.124 162.248 468.764 162.872 468.764 163.944H466.78C464.156 163.944 463.084 165 463.084 166.52C463.084 168.008 464.284 169.128 466.3 169.128C467.564 169.128 468.46 168.712 468.924 167.928V169H471.26V164.088C471.26 161.48 469.74 160.264 467.116 160.264ZM466.924 167.448C466.044 167.448 465.516 167.032 465.516 166.408C465.516 165.832 465.884 165.4 467.052 165.4H468.764V166.28C468.476 167.064 467.756 167.448 466.924 167.448ZM479.507 160.392L477.075 166.232L474.659 160.392H472.083L475.811 169.064L475.779 169.144C475.443 169.912 475.059 170.216 474.371 170.216C473.875 170.216 473.347 170.008 472.963 169.672L472.051 171.448C472.611 171.944 473.571 172.232 474.451 172.232C476.003 172.232 477.187 171.608 478.019 169.528L481.907 160.392H479.507ZM493.949 160.264C492.653 160.264 491.533 160.792 490.845 161.672C490.237 160.728 489.213 160.264 488.013 160.264C486.909 160.264 485.949 160.648 485.309 161.384V160.392H482.925V169H485.421V164.68C485.421 163.144 486.205 162.424 487.309 162.424C488.349 162.424 488.941 163.064 488.941 164.456V169H491.437V164.68C491.437 163.144 492.221 162.424 493.341 162.424C494.349 162.424 494.973 163.064 494.973 164.456V169H497.469V164.072C497.469 161.448 495.997 160.264 493.949 160.264ZM508.232 164.728C508.232 161.96 506.28 160.264 503.752 160.264C501.128 160.264 499.16 162.12 499.16 164.696C499.16 167.256 501.096 169.128 504.072 169.128C505.624 169.128 506.824 168.648 507.624 167.736L506.296 166.296C505.704 166.856 505.048 167.128 504.136 167.128C502.824 167.128 501.912 166.472 501.672 165.4H508.184C508.2 165.192 508.232 164.92 508.232 164.728ZM503.768 162.152C504.888 162.152 505.704 162.856 505.88 163.944H501.64C501.816 162.84 502.632 162.152 503.768 162.152ZM515.126 160.264C513.958 160.264 512.95 160.664 512.278 161.4V160.392H509.894V169H512.39V164.744C512.39 163.16 513.254 162.424 514.454 162.424C515.558 162.424 516.198 163.064 516.198 164.456V169H518.694V164.072C518.694 161.448 517.158 160.264 515.126 160.264ZM525.837 166.824C525.565 167.032 525.197 167.144 524.829 167.144C524.157 167.144 523.757 166.744 523.757 166.008V162.504H525.901V160.584H523.757V158.488H521.261V160.584H519.933V162.504H521.261V166.04C521.261 168.088 522.445 169.128 524.477 169.128C525.245 169.128 525.997 168.952 526.509 168.584L525.837 166.824ZM530.806 169.128C533.382 169.128 534.87 167.992 534.87 166.392C534.87 163 529.67 164.424 529.67 162.952C529.67 162.504 530.15 162.152 531.27 162.152C532.054 162.152 532.902 162.312 533.75 162.792L534.582 161.016C533.766 160.536 532.454 160.264 531.27 160.264C528.758 160.264 527.286 161.416 527.286 163.048C527.286 166.488 532.486 165.048 532.486 166.456C532.486 166.936 532.054 167.24 530.902 167.24C529.846 167.24 528.678 166.904 527.91 166.408L527.078 168.2C527.878 168.728 529.35 169.128 530.806 169.128Z" fill="#605481"/>
</svg>
