<svg width="1170" height="256" viewBox="0 0 1170 256" fill="none" xmlns="http://www.w3.org/2000/svg">
<path d="M690.293 117.293C689.902 117.683 689.902 118.317 690.293 118.707L696.657 125.071C697.047 125.462 697.681 125.462 698.071 125.071C698.462 124.681 698.462 124.047 698.071 123.657L692.414 118L698.071 112.343C698.462 111.953 698.462 111.319 698.071 110.929C697.681 110.538 697.047 110.538 696.657 110.929L690.293 117.293ZM962 117L691 117L691 119L962 119L962 117Z" fill="#51C1B4"/>
<path d="M212.293 117.293C211.902 117.683 211.902 118.317 212.293 118.707L218.657 125.071C219.047 125.462 219.681 125.462 220.071 125.071C220.462 124.681 220.462 124.047 220.071 123.657L214.414 118L220.071 112.343C220.462 111.953 220.462 111.319 220.071 110.929C219.681 110.538 219.047 110.538 218.657 110.929L212.293 117.293ZM484 117L213 117L213 119L484 119L484 117Z" fill="#51C1B4"/>
<path d="M479.707 33.7071C480.098 33.3166 480.098 32.6834 479.707 32.2929L473.343 25.9289C472.953 25.5384 472.319 25.5384 471.929 25.9289C471.538 26.3195 471.538 26.9526 471.929 27.3431L477.586 33L471.929 38.6569C471.538 39.0474 471.538 39.6805 471.929 40.0711C472.319 40.4616 472.953 40.4616 473.343 40.0711L479.707 33.7071ZM210 34L479 34V32L210 32V34Z" fill="#736697"/>
<path d="M959.707 33.7071C960.098 33.3166 960.098 32.6834 959.707 32.2929L953.343 25.9289C952.953 25.5384 952.319 25.5384 951.929 25.9289C951.538 26.3195 951.538 26.9526 951.929 27.3431L957.586 33L951.929 38.6569C951.538 39.0474 951.538 39.6805 951.929 40.0711C952.319 40.4616 952.953 40.4616 953.343 40.0711L959.707 33.7071ZM690 34L959 34V32L690 32V34Z" fill="#736697"/>
<path d="M690.293 212.293C689.902 212.683 689.902 213.317 690.293 213.707L696.657 220.071C697.047 220.462 697.681 220.462 698.071 220.071C698.462 219.681 698.462 219.047 698.071 218.657L692.414 213L698.071 207.343C698.462 206.953 698.462 206.319 698.071 205.929C697.681 205.538 697.047 205.538 696.657 205.929L690.293 212.293ZM962 212L691 212L691 214L962 214L962 212Z" fill="#51C1B4"/>
<path d="M212.293 212.293C211.902 212.683 211.902 213.317 212.293 213.707L218.657 220.071C219.047 220.462 219.681 220.462 220.071 220.071C220.462 219.681 220.462 219.047 220.071 218.657L214.414 213L220.071 207.343C220.462 206.953 220.462 206.319 220.071 205.929C219.681 205.538 219.047 205.538 218.657 205.929L212.293 212.293ZM484 212L213 212L213 214L484 214L484 212Z" fill="#51C1B4"/>
<rect width="210" height="256" transform="matrix(1 0 0 -1 0 256)" fill="#E8ECF1"/>
<rect width="210" height="256" transform="matrix(1 0 0 -1 480 256)" fill="#E8ECF1"/>
<rect width="210" height="256" transform="matrix(1 0 0 -1 960 256)" fill="#E8ECF1"/>
<rect width="256" height="1.99998" transform="matrix(-9.73261e-08 -1 -1 1.96318e-08 212 256)" fill="#736697"/>
<rect width="210" height="65" transform="matrix(1 0 0 -1 240 65)" fill="#E7D0E3"/>
<rect width="210" height="65" transform="matrix(1 0 0 -1 720 65)" fill="#E7D0E3"/>
<rect width="210" height="65" transform="matrix(1 0 0 -1 240 150)" fill="#E7D0E3"/>
<rect width="210" height="65" transform="matrix(1 0 0 -1 720 150)" fill="#E7D0E3"/>
<rect width="210" height="85" transform="matrix(1 0 0 -1 240 256)" fill="#E7D0E3"/>
<rect width="210" height="87" transform="matrix(1 0 0 -1 720 256)" fill="#E7D0E3"/>
<rect width="256" height="1.99998" transform="matrix(-9.73261e-08 -1 -1 1.96318e-08 962 256)" fill="#51C1B4"/>
<path d="M72.2577 120H74.8497V108.8H72.2577V120ZM82.5637 111.264C81.3957 111.264 80.3877 111.664 79.7157 112.4V111.392H77.3317V120H79.8277V115.744C79.8277 114.16 80.6917 113.424 81.8917 113.424C82.9957 113.424 83.6357 114.064 83.6357 115.456V120H86.1317V115.072C86.1317 112.448 84.5957 111.264 82.5637 111.264ZM94.3819 111.392L91.9179 117.248L89.5339 111.392H86.9579L90.5739 120H93.1499L96.7819 111.392H94.3819ZM105.998 115.728C105.998 112.96 104.046 111.264 101.518 111.264C98.8941 111.264 96.9261 113.12 96.9261 115.696C96.9261 118.256 98.8621 120.128 101.838 120.128C103.39 120.128 104.59 119.648 105.39 118.736L104.062 117.296C103.47 117.856 102.814 118.128 101.902 118.128C100.59 118.128 99.6781 117.472 99.4381 116.4H105.95C105.966 116.192 105.998 115.92 105.998 115.728ZM101.534 113.152C102.654 113.152 103.47 113.856 103.646 114.944H99.4061C99.5821 113.84 100.398 113.152 101.534 113.152ZM110.556 120.128C113.132 120.128 114.62 118.992 114.62 117.392C114.62 114 109.42 115.424 109.42 113.952C109.42 113.504 109.9 113.152 111.02 113.152C111.804 113.152 112.652 113.312 113.5 113.792L114.332 112.016C113.516 111.536 112.204 111.264 111.02 111.264C108.508 111.264 107.036 112.416 107.036 114.048C107.036 117.488 112.236 116.048 112.236 117.456C112.236 117.936 111.804 118.24 110.652 118.24C109.596 118.24 108.428 117.904 107.66 117.408L106.828 119.2C107.628 119.728 109.1 120.128 110.556 120.128ZM121.04 117.824C120.768 118.032 120.4 118.144 120.032 118.144C119.36 118.144 118.96 117.744 118.96 117.008V113.504H121.104V111.584H118.96V109.488H116.464V111.584H115.136V113.504H116.464V117.04C116.464 119.088 117.648 120.128 119.68 120.128C120.448 120.128 121.2 119.952 121.712 119.584L121.04 117.824ZM126.943 120.128C129.679 120.128 131.663 118.288 131.663 115.696C131.663 113.104 129.679 111.264 126.943 111.264C124.207 111.264 122.207 113.104 122.207 115.696C122.207 118.288 124.207 120.128 126.943 120.128ZM126.943 118.08C125.695 118.08 124.735 117.184 124.735 115.696C124.735 114.208 125.695 113.312 126.943 113.312C128.191 113.312 129.135 114.208 129.135 115.696C129.135 117.184 128.191 118.08 126.943 118.08ZM135.716 112.528V111.392H133.332V120H135.828V115.936C135.828 114.288 136.74 113.536 138.116 113.536C138.308 113.536 138.468 113.552 138.676 113.568V111.264C137.348 111.264 136.324 111.696 135.716 112.528Z" fill="#605481"/>
<path d="M529.694 110L529.662 98.8H527.534L523.406 105.76L519.214 98.8H517.07V110H519.502V103.424L522.782 108.816H523.95L527.246 103.28L527.262 110H529.694ZM536.271 110.128C539.007 110.128 540.991 108.288 540.991 105.696C540.991 103.104 539.007 101.264 536.271 101.264C533.535 101.264 531.535 103.104 531.535 105.696C531.535 108.288 533.535 110.128 536.271 110.128ZM536.271 108.08C535.023 108.08 534.063 107.184 534.063 105.696C534.063 104.208 535.023 103.312 536.271 103.312C537.519 103.312 538.463 104.208 538.463 105.696C538.463 107.184 537.519 108.08 536.271 108.08ZM545.044 102.528V101.392H542.66V110H545.156V105.936C545.156 104.288 546.068 103.536 547.444 103.536C547.636 103.536 547.796 103.552 548.004 103.568V101.264C546.676 101.264 545.652 101.696 545.044 102.528ZM554.665 107.824C554.393 108.032 554.025 108.144 553.657 108.144C552.985 108.144 552.585 107.744 552.585 107.008V103.504H554.729V101.584H552.585V99.488H550.089V101.584H548.761V103.504H550.089V107.04C550.089 109.088 551.273 110.128 553.305 110.128C554.073 110.128 554.825 109.952 555.337 109.584L554.665 107.824ZM562.984 101.392V102.496C562.328 101.664 561.336 101.264 560.136 101.264C557.752 101.264 555.832 102.912 555.832 105.424C555.832 107.936 557.752 109.584 560.136 109.584C561.256 109.584 562.2 109.232 562.856 108.512V108.88C562.856 110.432 562.088 111.232 560.328 111.232C559.224 111.232 558.024 110.848 557.288 110.256L556.296 112.048C557.304 112.832 558.888 113.232 560.52 113.232C563.624 113.232 565.352 111.76 565.352 108.56V101.392H562.984ZM560.632 107.536C559.32 107.536 558.36 106.688 558.36 105.424C558.36 104.16 559.32 103.312 560.632 103.312C561.944 103.312 562.888 104.16 562.888 105.424C562.888 106.688 561.944 107.536 560.632 107.536ZM571.147 101.264C569.771 101.264 568.379 101.632 567.435 102.304L568.331 104.048C568.955 103.552 569.899 103.248 570.811 103.248C572.155 103.248 572.795 103.872 572.795 104.944H570.811C568.187 104.944 567.115 106 567.115 107.52C567.115 109.008 568.315 110.128 570.331 110.128C571.595 110.128 572.491 109.712 572.955 108.928V110H575.291V105.088C575.291 102.48 573.771 101.264 571.147 101.264ZM570.955 108.448C570.075 108.448 569.547 108.032 569.547 107.408C569.547 106.832 569.915 106.4 571.083 106.4H572.795V107.28C572.507 108.064 571.787 108.448 570.955 108.448ZM584.156 101.392V102.496C583.5 101.664 582.508 101.264 581.308 101.264C578.924 101.264 577.004 102.912 577.004 105.424C577.004 107.936 578.924 109.584 581.308 109.584C582.428 109.584 583.372 109.232 584.028 108.512V108.88C584.028 110.432 583.26 111.232 581.5 111.232C580.396 111.232 579.196 110.848 578.46 110.256L577.468 112.048C578.476 112.832 580.06 113.232 581.692 113.232C584.796 113.232 586.524 111.76 586.524 108.56V101.392H584.156ZM581.804 107.536C580.492 107.536 579.532 106.688 579.532 105.424C579.532 104.16 580.492 103.312 581.804 103.312C583.116 103.312 584.06 104.16 584.06 105.424C584.06 106.688 583.116 107.536 581.804 107.536ZM597.279 105.728C597.279 102.96 595.327 101.264 592.799 101.264C590.175 101.264 588.207 103.12 588.207 105.696C588.207 108.256 590.143 110.128 593.119 110.128C594.671 110.128 595.871 109.648 596.671 108.736L595.343 107.296C594.751 107.856 594.095 108.128 593.183 108.128C591.871 108.128 590.959 107.472 590.719 106.4H597.231C597.247 106.192 597.279 105.92 597.279 105.728ZM592.815 103.152C593.935 103.152 594.751 103.856 594.927 104.944H590.687C590.863 103.84 591.679 103.152 592.815 103.152ZM612.112 100.88V98.8H603.648V110H606.24V105.92H611.424V103.84H606.24V100.88H612.112ZM619.648 101.392V105.648C619.648 107.232 618.816 107.968 617.664 107.968C616.56 107.968 615.92 107.328 615.92 105.888V101.392H613.424V106.256C613.424 108.912 614.944 110.128 617.104 110.128C618.16 110.128 619.12 109.728 619.776 108.976V110H622.144V101.392H619.648ZM629.689 101.264C628.521 101.264 627.513 101.664 626.841 102.4V101.392H624.457V110H626.953V105.744C626.953 104.16 627.817 103.424 629.017 103.424C630.121 103.424 630.761 104.064 630.761 105.456V110H633.257V105.072C633.257 102.448 631.721 101.264 629.689 101.264ZM641.885 98.128V102.304C641.261 101.6 640.365 101.264 639.309 101.264C636.877 101.264 635.005 102.992 635.005 105.696C635.005 108.4 636.877 110.128 639.309 110.128C640.461 110.128 641.373 109.76 641.997 109.008V110H644.381V98.128H641.885ZM639.741 108.08C638.493 108.08 637.533 107.184 637.533 105.696C637.533 104.208 638.493 103.312 639.741 103.312C640.973 103.312 641.933 104.208 641.933 105.696C641.933 107.184 640.973 108.08 639.741 108.08ZM647.635 104.384C648.499 104.384 649.187 103.728 649.187 102.816C649.187 101.888 648.499 101.28 647.635 101.28C646.771 101.28 646.083 101.888 646.083 102.816C646.083 103.728 646.771 104.384 647.635 104.384ZM647.635 110.128C648.499 110.128 649.187 109.472 649.187 108.56C649.187 107.632 648.499 107.024 647.635 107.024C646.771 107.024 646.083 107.632 646.083 108.56C646.083 109.472 646.771 110.128 647.635 110.128ZM533.801 123.8H528.953V135H531.545V131.912H533.801C536.793 131.912 538.665 130.36 538.665 127.864C538.665 125.352 536.793 123.8 533.801 123.8ZM533.657 129.8H531.545V125.912H533.657C535.241 125.912 536.041 126.632 536.041 127.864C536.041 129.08 535.241 129.8 533.657 129.8ZM544.42 135.128C547.156 135.128 549.14 133.288 549.14 130.696C549.14 128.104 547.156 126.264 544.42 126.264C541.684 126.264 539.684 128.104 539.684 130.696C539.684 133.288 541.684 135.128 544.42 135.128ZM544.42 133.08C543.172 133.08 542.212 132.184 542.212 130.696C542.212 129.208 543.172 128.312 544.42 128.312C545.668 128.312 546.612 129.208 546.612 130.696C546.612 132.184 545.668 133.08 544.42 133.08ZM554.904 135.128C557.64 135.128 559.624 133.288 559.624 130.696C559.624 128.104 557.64 126.264 554.904 126.264C552.168 126.264 550.168 128.104 550.168 130.696C550.168 133.288 552.168 135.128 554.904 135.128ZM554.904 133.08C553.656 133.08 552.696 132.184 552.696 130.696C552.696 129.208 553.656 128.312 554.904 128.312C556.152 128.312 557.096 129.208 557.096 130.696C557.096 132.184 556.152 133.08 554.904 133.08ZM561.293 135H563.789V123.128H561.293V135ZM574.537 130.728C574.537 127.96 572.585 126.264 570.057 126.264C567.433 126.264 565.465 128.12 565.465 130.696C565.465 133.256 567.401 135.128 570.377 135.128C571.929 135.128 573.129 134.648 573.929 133.736L572.601 132.296C572.009 132.856 571.353 133.128 570.441 133.128C569.129 133.128 568.217 132.472 567.977 131.4H574.489C574.505 131.192 574.537 130.92 574.537 130.728ZM570.073 128.152C571.193 128.152 572.009 128.856 572.185 129.944H567.945C568.121 128.84 568.937 128.152 570.073 128.152ZM582.471 123.128V127.304C581.847 126.6 580.951 126.264 579.895 126.264C577.463 126.264 575.591 127.992 575.591 130.696C575.591 133.4 577.463 135.128 579.895 135.128C581.047 135.128 581.959 134.76 582.583 134.008V135H584.967V123.128H582.471ZM580.327 133.08C579.079 133.08 578.119 132.184 578.119 130.696C578.119 129.208 579.079 128.312 580.327 128.312C581.559 128.312 582.519 129.208 582.519 130.696C582.519 132.184 581.559 133.08 580.327 133.08ZM600.448 125.88V123.8H591.984V135H594.576V130.92H599.76V128.84H594.576V125.88H600.448ZM607.984 126.392V130.648C607.984 132.232 607.152 132.968 606 132.968C604.896 132.968 604.256 132.328 604.256 130.888V126.392H601.76V131.256C601.76 133.912 603.28 135.128 605.44 135.128C606.496 135.128 607.456 134.728 608.112 133.976V135H610.48V126.392H607.984ZM618.025 126.264C616.857 126.264 615.849 126.664 615.177 127.4V126.392H612.793V135H615.289V130.744C615.289 129.16 616.153 128.424 617.353 128.424C618.457 128.424 619.097 129.064 619.097 130.456V135H621.593V130.072C621.593 127.448 620.057 126.264 618.025 126.264ZM630.221 123.128V127.304C629.597 126.6 628.701 126.264 627.645 126.264C625.213 126.264 623.341 127.992 623.341 130.696C623.341 133.4 625.213 135.128 627.645 135.128C628.797 135.128 629.709 134.76 630.333 134.008V135H632.717V123.128H630.221ZM628.077 133.08C626.829 133.08 625.869 132.184 625.869 130.696C625.869 129.208 626.829 128.312 628.077 128.312C629.309 128.312 630.269 129.208 630.269 130.696C630.269 132.184 629.309 133.08 628.077 133.08ZM637.923 135.128C640.499 135.128 641.987 133.992 641.987 132.392C641.987 129 636.787 130.424 636.787 128.952C636.787 128.504 637.267 128.152 638.387 128.152C639.171 128.152 640.019 128.312 640.867 128.792L641.699 127.016C640.883 126.536 639.571 126.264 638.387 126.264C635.875 126.264 634.403 127.416 634.403 129.048C634.403 132.488 639.603 131.048 639.603 132.456C639.603 132.936 639.171 133.24 638.019 133.24C636.963 133.24 635.795 132.904 635.027 132.408L634.195 134.2C634.995 134.728 636.467 135.128 637.923 135.128Z" fill="#605481"/>
<path d="M994.913 110L994.881 98.8H992.753L988.625 105.76L984.433 98.8H982.289V110H984.721V103.424L988.001 108.816H989.169L992.465 103.28L992.481 110H994.913ZM1001.49 110.128C1004.23 110.128 1006.21 108.288 1006.21 105.696C1006.21 103.104 1004.23 101.264 1001.49 101.264C998.754 101.264 996.754 103.104 996.754 105.696C996.754 108.288 998.754 110.128 1001.49 110.128ZM1001.49 108.08C1000.24 108.08 999.282 107.184 999.282 105.696C999.282 104.208 1000.24 103.312 1001.49 103.312C1002.74 103.312 1003.68 104.208 1003.68 105.696C1003.68 107.184 1002.74 108.08 1001.49 108.08ZM1010.26 102.528V101.392H1007.88V110H1010.37V105.936C1010.37 104.288 1011.29 103.536 1012.66 103.536C1012.85 103.536 1013.01 103.552 1013.22 103.568V101.264C1011.89 101.264 1010.87 101.696 1010.26 102.528ZM1019.88 107.824C1019.61 108.032 1019.24 108.144 1018.88 108.144C1018.2 108.144 1017.8 107.744 1017.8 107.008V103.504H1019.95V101.584H1017.8V99.488H1015.31V101.584H1013.98V103.504H1015.31V107.04C1015.31 109.088 1016.49 110.128 1018.52 110.128C1019.29 110.128 1020.04 109.952 1020.56 109.584L1019.88 107.824ZM1028.2 101.392V102.496C1027.55 101.664 1026.56 101.264 1025.36 101.264C1022.97 101.264 1021.05 102.912 1021.05 105.424C1021.05 107.936 1022.97 109.584 1025.36 109.584C1026.48 109.584 1027.42 109.232 1028.08 108.512V108.88C1028.08 110.432 1027.31 111.232 1025.55 111.232C1024.44 111.232 1023.24 110.848 1022.51 110.256L1021.52 112.048C1022.52 112.832 1024.11 113.232 1025.74 113.232C1028.84 113.232 1030.57 111.76 1030.57 108.56V101.392H1028.2ZM1025.85 107.536C1024.54 107.536 1023.58 106.688 1023.58 105.424C1023.58 104.16 1024.54 103.312 1025.85 103.312C1027.16 103.312 1028.11 104.16 1028.11 105.424C1028.11 106.688 1027.16 107.536 1025.85 107.536ZM1036.37 101.264C1034.99 101.264 1033.6 101.632 1032.65 102.304L1033.55 104.048C1034.17 103.552 1035.12 103.248 1036.03 103.248C1037.37 103.248 1038.01 103.872 1038.01 104.944H1036.03C1033.41 104.944 1032.33 106 1032.33 107.52C1032.33 109.008 1033.53 110.128 1035.55 110.128C1036.81 110.128 1037.71 109.712 1038.17 108.928V110H1040.51V105.088C1040.51 102.48 1038.99 101.264 1036.37 101.264ZM1036.17 108.448C1035.29 108.448 1034.77 108.032 1034.77 107.408C1034.77 106.832 1035.13 106.4 1036.3 106.4H1038.01V107.28C1037.73 108.064 1037.01 108.448 1036.17 108.448ZM1049.37 101.392V102.496C1048.72 101.664 1047.73 101.264 1046.53 101.264C1044.14 101.264 1042.22 102.912 1042.22 105.424C1042.22 107.936 1044.14 109.584 1046.53 109.584C1047.65 109.584 1048.59 109.232 1049.25 108.512V108.88C1049.25 110.432 1048.48 111.232 1046.72 111.232C1045.61 111.232 1044.41 110.848 1043.68 110.256L1042.69 112.048C1043.69 112.832 1045.28 113.232 1046.91 113.232C1050.01 113.232 1051.74 111.76 1051.74 108.56V101.392H1049.37ZM1047.02 107.536C1045.71 107.536 1044.75 106.688 1044.75 105.424C1044.75 104.16 1045.71 103.312 1047.02 103.312C1048.33 103.312 1049.28 104.16 1049.28 105.424C1049.28 106.688 1048.33 107.536 1047.02 107.536ZM1062.5 105.728C1062.5 102.96 1060.55 101.264 1058.02 101.264C1055.39 101.264 1053.43 103.12 1053.43 105.696C1053.43 108.256 1055.36 110.128 1058.34 110.128C1059.89 110.128 1061.09 109.648 1061.89 108.736L1060.56 107.296C1059.97 107.856 1059.31 108.128 1058.4 108.128C1057.09 108.128 1056.18 107.472 1055.94 106.4H1062.45C1062.47 106.192 1062.5 105.92 1062.5 105.728ZM1058.03 103.152C1059.15 103.152 1059.97 103.856 1060.15 104.944H1055.91C1056.08 103.84 1056.9 103.152 1058.03 103.152ZM1073.72 98.8H1068.87V110H1071.46V106.912H1073.72C1076.71 106.912 1078.58 105.36 1078.58 102.864C1078.58 100.352 1076.71 98.8 1073.72 98.8ZM1073.57 104.8H1071.46V100.912H1073.57C1075.16 100.912 1075.96 101.632 1075.96 102.864C1075.96 104.08 1075.16 104.8 1073.57 104.8ZM1084.33 110.128C1087.07 110.128 1089.05 108.288 1089.05 105.696C1089.05 103.104 1087.07 101.264 1084.33 101.264C1081.6 101.264 1079.6 103.104 1079.6 105.696C1079.6 108.288 1081.6 110.128 1084.33 110.128ZM1084.33 108.08C1083.09 108.08 1082.13 107.184 1082.13 105.696C1082.13 104.208 1083.09 103.312 1084.33 103.312C1085.58 103.312 1086.53 104.208 1086.53 105.696C1086.53 107.184 1085.58 108.08 1084.33 108.08ZM1093.11 102.528V101.392H1090.72V110H1093.22V105.936C1093.22 104.288 1094.13 103.536 1095.51 103.536C1095.7 103.536 1095.86 103.552 1096.07 103.568V101.264C1094.74 101.264 1093.71 101.696 1093.11 102.528ZM1102.73 107.824C1102.46 108.032 1102.09 108.144 1101.72 108.144C1101.05 108.144 1100.65 107.744 1100.65 107.008V103.504H1102.79V101.584H1100.65V99.488H1098.15V101.584H1096.82V103.504H1098.15V107.04C1098.15 109.088 1099.34 110.128 1101.37 110.128C1102.14 110.128 1102.89 109.952 1103.4 109.584L1102.73 107.824ZM1107.54 101.216C1107.54 100.368 1107.94 99.968 1108.67 99.968C1109.06 99.968 1109.41 100.08 1109.68 100.272L1110.34 98.464C1109.87 98.144 1109.14 98 1108.43 98C1106.29 98 1105.1 99.264 1105.1 101.2V101.584H1103.78V103.504H1105.1V110H1107.6V103.504H1109.74V101.584H1107.54V101.216ZM1114.97 110.128C1117.71 110.128 1119.69 108.288 1119.69 105.696C1119.69 103.104 1117.71 101.264 1114.97 101.264C1112.24 101.264 1110.24 103.104 1110.24 105.696C1110.24 108.288 1112.24 110.128 1114.97 110.128ZM1114.97 108.08C1113.73 108.08 1112.77 107.184 1112.77 105.696C1112.77 104.208 1113.73 103.312 1114.97 103.312C1116.22 103.312 1117.17 104.208 1117.17 105.696C1117.17 107.184 1116.22 108.08 1114.97 108.08ZM1121.36 110H1123.86V98.128H1121.36V110ZM1127.42 100.192C1128.35 100.192 1128.98 99.584 1128.98 98.752C1128.98 97.984 1128.35 97.408 1127.42 97.408C1126.5 97.408 1125.87 98.016 1125.87 98.8C1125.87 99.584 1126.5 100.192 1127.42 100.192ZM1126.18 110H1128.67V101.392H1126.18V110ZM1135.08 110.128C1137.82 110.128 1139.8 108.288 1139.8 105.696C1139.8 103.104 1137.82 101.264 1135.08 101.264C1132.35 101.264 1130.35 103.104 1130.35 105.696C1130.35 108.288 1132.35 110.128 1135.08 110.128ZM1135.08 108.08C1133.84 108.08 1132.88 107.184 1132.88 105.696C1132.88 104.208 1133.84 103.312 1135.08 103.312C1136.33 103.312 1137.28 104.208 1137.28 105.696C1137.28 107.184 1136.33 108.08 1135.08 108.08ZM1142.42 104.384C1143.28 104.384 1143.97 103.728 1143.97 102.816C1143.97 101.888 1143.28 101.28 1142.42 101.28C1141.55 101.28 1140.86 101.888 1140.86 102.816C1140.86 103.728 1141.55 104.384 1142.42 104.384ZM1142.42 110.128C1143.28 110.128 1143.97 109.472 1143.97 108.56C1143.97 107.632 1143.28 107.024 1142.42 107.024C1141.55 107.024 1140.86 107.632 1140.86 108.56C1140.86 109.472 1141.55 110.128 1142.42 110.128ZM1031.18 129.176C1032.09 128.696 1032.67 127.832 1032.67 126.712C1032.67 124.968 1031.23 123.8 1028.43 123.8H1022.95V135H1028.75C1031.69 135 1033.23 133.88 1033.23 131.944C1033.23 130.536 1032.43 129.576 1031.18 129.176ZM1028.11 125.752C1029.37 125.752 1030.06 126.184 1030.06 127.064C1030.06 127.944 1029.37 128.392 1028.11 128.392H1025.53V125.752H1028.11ZM1028.55 133.048H1025.53V130.28H1028.55C1029.9 130.28 1030.62 130.728 1030.62 131.672C1030.62 132.632 1029.9 133.048 1028.55 133.048ZM1039.11 135.128C1041.84 135.128 1043.83 133.288 1043.83 130.696C1043.83 128.104 1041.84 126.264 1039.11 126.264C1036.37 126.264 1034.37 128.104 1034.37 130.696C1034.37 133.288 1036.37 135.128 1039.11 135.128ZM1039.11 133.08C1037.86 133.08 1036.9 132.184 1036.9 130.696C1036.9 129.208 1037.86 128.312 1039.11 128.312C1040.36 128.312 1041.3 129.208 1041.3 130.696C1041.3 132.184 1040.36 133.08 1039.11 133.08ZM1047.88 127.528V126.392H1045.5V135H1047.99V130.936C1047.99 129.288 1048.9 128.536 1050.28 128.536C1050.47 128.536 1050.63 128.552 1050.84 128.568V126.264C1049.51 126.264 1048.49 126.696 1047.88 127.528ZM1054.71 127.528V126.392H1052.32V135H1054.82V130.936C1054.82 129.288 1055.73 128.536 1057.11 128.536C1057.3 128.536 1057.46 128.552 1057.67 128.568V126.264C1056.34 126.264 1055.32 126.696 1054.71 127.528ZM1063.17 135.128C1065.91 135.128 1067.89 133.288 1067.89 130.696C1067.89 128.104 1065.91 126.264 1063.17 126.264C1060.43 126.264 1058.43 128.104 1058.43 130.696C1058.43 133.288 1060.43 135.128 1063.17 135.128ZM1063.17 133.08C1061.92 133.08 1060.96 132.184 1060.96 130.696C1060.96 129.208 1061.92 128.312 1063.17 128.312C1064.42 128.312 1065.36 129.208 1065.36 130.696C1065.36 132.184 1064.42 133.08 1063.17 133.08ZM1080.94 126.392L1078.84 132.216L1076.8 126.392H1074.68L1072.57 132.216L1070.54 126.392H1068.19L1071.29 135H1073.69L1075.69 129.656L1077.63 135H1080.03L1083.15 126.392H1080.94ZM1092.51 130.728C1092.51 127.96 1090.55 126.264 1088.03 126.264C1085.4 126.264 1083.43 128.12 1083.43 130.696C1083.43 133.256 1085.37 135.128 1088.35 135.128C1089.9 135.128 1091.1 134.648 1091.9 133.736L1090.57 132.296C1089.98 132.856 1089.32 133.128 1088.41 133.128C1087.1 133.128 1086.19 132.472 1085.95 131.4H1092.46C1092.47 131.192 1092.51 130.92 1092.51 130.728ZM1088.04 128.152C1089.16 128.152 1089.98 128.856 1090.15 129.944H1085.91C1086.09 128.84 1086.91 128.152 1088.04 128.152ZM1096.55 127.528V126.392H1094.17V135H1096.66V130.936C1096.66 129.288 1097.58 128.536 1098.95 128.536C1099.14 128.536 1099.3 128.552 1099.51 128.568V126.264C1098.18 126.264 1097.16 126.696 1096.55 127.528ZM1103.92 135.128C1106.5 135.128 1107.99 133.992 1107.99 132.392C1107.99 129 1102.79 130.424 1102.79 128.952C1102.79 128.504 1103.27 128.152 1104.39 128.152C1105.17 128.152 1106.02 128.312 1106.87 128.792L1107.7 127.016C1106.88 126.536 1105.57 126.264 1104.39 126.264C1101.88 126.264 1100.4 127.416 1100.4 129.048C1100.4 132.488 1105.6 131.048 1105.6 132.456C1105.6 132.936 1105.17 133.24 1104.02 133.24C1102.96 133.24 1101.8 132.904 1101.03 132.408L1100.2 134.2C1101 134.728 1102.47 135.128 1103.92 135.128Z" fill="#605481"/>
<path d="M266.833 32.176C267.745 31.696 268.321 30.832 268.321 29.712C268.321 27.968 266.881 26.8 264.081 26.8H258.609V38H264.401C267.345 38 268.881 36.88 268.881 34.944C268.881 33.536 268.081 32.576 266.833 32.176ZM263.761 28.752C265.025 28.752 265.713 29.184 265.713 30.064C265.713 30.944 265.025 31.392 263.761 31.392H261.185V28.752H263.761ZM264.209 36.048H261.185V33.28H264.209C265.553 33.28 266.273 33.728 266.273 34.672C266.273 35.632 265.553 36.048 264.209 36.048ZM276.844 29.392V33.648C276.844 35.232 276.012 35.968 274.86 35.968C273.756 35.968 273.116 35.328 273.116 33.888V29.392H270.62V34.256C270.62 36.912 272.14 38.128 274.3 38.128C275.356 38.128 276.316 37.728 276.972 36.976V38H279.34V29.392H276.844ZM287.796 29.392L285.364 35.232L282.948 29.392H280.372L284.1 38.064L284.068 38.144C283.732 38.912 283.348 39.216 282.66 39.216C282.164 39.216 281.636 39.008 281.252 38.672L280.34 40.448C280.9 40.944 281.86 41.232 282.74 41.232C284.292 41.232 285.476 40.608 286.308 38.528L290.196 29.392H287.796ZM300.834 29.264C299.682 29.264 298.754 29.632 298.13 30.384V29.392H295.746V41.104H298.242V37.088C298.882 37.792 299.762 38.128 300.834 38.128C303.25 38.128 305.122 36.4 305.122 33.696C305.122 30.992 303.25 29.264 300.834 29.264ZM300.402 36.08C299.154 36.08 298.21 35.184 298.21 33.696C298.21 32.208 299.154 31.312 300.402 31.312C301.65 31.312 302.594 32.208 302.594 33.696C302.594 35.184 301.65 36.08 300.402 36.08ZM309.177 30.528V29.392H306.793V38H309.289V33.936C309.289 32.288 310.201 31.536 311.577 31.536C311.769 31.536 311.929 31.552 312.137 31.568V29.264C310.809 29.264 309.785 29.696 309.177 30.528ZM321.975 33.728C321.975 30.96 320.023 29.264 317.495 29.264C314.871 29.264 312.903 31.12 312.903 33.696C312.903 36.256 314.839 38.128 317.815 38.128C319.367 38.128 320.567 37.648 321.367 36.736L320.039 35.296C319.447 35.856 318.791 36.128 317.879 36.128C316.567 36.128 315.655 35.472 315.415 34.4H321.927C321.943 34.192 321.975 33.92 321.975 33.728ZM317.511 31.152C318.631 31.152 319.447 31.856 319.623 32.944H315.383C315.559 31.84 316.375 31.152 317.511 31.152ZM326.372 29.216C326.372 28.368 326.772 27.968 327.508 27.968C327.892 27.968 328.244 28.08 328.516 28.272L329.172 26.464C328.708 26.144 327.972 26 327.268 26C325.124 26 323.94 27.264 323.94 29.2V29.584H322.612V31.504H323.94V38H326.436V31.504H328.58V29.584H326.372V29.216ZM338.147 33.728C338.147 30.96 336.195 29.264 333.667 29.264C331.043 29.264 329.075 31.12 329.075 33.696C329.075 36.256 331.011 38.128 333.987 38.128C335.539 38.128 336.739 37.648 337.539 36.736L336.211 35.296C335.619 35.856 334.963 36.128 334.051 36.128C332.739 36.128 331.827 35.472 331.587 34.4H338.099C338.115 34.192 338.147 33.92 338.147 33.728ZM333.683 31.152C334.803 31.152 335.619 31.856 335.795 32.944H331.555C331.731 31.84 332.547 31.152 333.683 31.152ZM342.192 30.528V29.392H339.808V38H342.304V33.936C342.304 32.288 343.216 31.536 344.592 31.536C344.784 31.536 344.944 31.552 345.152 31.568V29.264C343.824 29.264 342.8 29.696 342.192 30.528ZM349.02 30.528V29.392H346.636V38H349.132V33.936C349.132 32.288 350.044 31.536 351.42 31.536C351.612 31.536 351.772 31.552 351.98 31.568V29.264C350.652 29.264 349.628 29.696 349.02 30.528ZM361.818 33.728C361.818 30.96 359.866 29.264 357.338 29.264C354.714 29.264 352.746 31.12 352.746 33.696C352.746 36.256 354.682 38.128 357.658 38.128C359.21 38.128 360.41 37.648 361.21 36.736L359.882 35.296C359.29 35.856 358.634 36.128 357.722 36.128C356.41 36.128 355.498 35.472 355.258 34.4H361.77C361.786 34.192 361.818 33.92 361.818 33.728ZM357.354 31.152C358.474 31.152 359.29 31.856 359.466 32.944H355.226C355.402 31.84 356.218 31.152 357.354 31.152ZM369.752 26.128V30.304C369.128 29.6 368.232 29.264 367.176 29.264C364.744 29.264 362.872 30.992 362.872 33.696C362.872 36.4 364.744 38.128 367.176 38.128C368.328 38.128 369.24 37.76 369.864 37.008V38H372.248V26.128H369.752ZM367.608 36.08C366.36 36.08 365.4 35.184 365.4 33.696C365.4 32.208 366.36 31.312 367.608 31.312C368.84 31.312 369.8 32.208 369.8 33.696C369.8 35.184 368.84 36.08 367.608 36.08ZM381.986 38.128C384.562 38.128 386.05 36.992 386.05 35.392C386.05 32 380.85 33.424 380.85 31.952C380.85 31.504 381.33 31.152 382.45 31.152C383.234 31.152 384.082 31.312 384.93 31.792L385.762 30.016C384.946 29.536 383.634 29.264 382.45 29.264C379.938 29.264 378.465 30.416 378.465 32.048C378.465 35.488 383.666 34.048 383.666 35.456C383.666 35.936 383.234 36.24 382.082 36.24C381.026 36.24 379.858 35.904 379.09 35.408L378.258 37.2C379.058 37.728 380.53 38.128 381.986 38.128ZM392.822 29.264C391.718 29.264 390.758 29.616 390.086 30.288V26.128H387.59V38H390.086V33.744C390.086 32.16 390.95 31.424 392.15 31.424C393.254 31.424 393.894 32.064 393.894 33.456V38H396.39V33.072C396.39 30.448 394.854 29.264 392.822 29.264ZM402.124 29.264C400.748 29.264 399.356 29.632 398.412 30.304L399.308 32.048C399.932 31.552 400.876 31.248 401.788 31.248C403.132 31.248 403.772 31.872 403.772 32.944H401.788C399.164 32.944 398.092 34 398.092 35.52C398.092 37.008 399.292 38.128 401.308 38.128C402.572 38.128 403.468 37.712 403.932 36.928V38H406.268V33.088C406.268 30.48 404.748 29.264 402.124 29.264ZM401.932 36.448C401.052 36.448 400.524 36.032 400.524 35.408C400.524 34.832 400.892 34.4 402.06 34.4H403.772V35.28C403.484 36.064 402.764 36.448 401.932 36.448ZM410.911 30.528V29.392H408.527V38H411.023V33.936C411.023 32.288 411.935 31.536 413.311 31.536C413.503 31.536 413.663 31.552 413.871 31.568V29.264C412.543 29.264 411.519 29.696 410.911 30.528ZM423.709 33.728C423.709 30.96 421.757 29.264 419.229 29.264C416.605 29.264 414.637 31.12 414.637 33.696C414.637 36.256 416.573 38.128 419.549 38.128C421.101 38.128 422.301 37.648 423.101 36.736L421.773 35.296C421.181 35.856 420.525 36.128 419.613 36.128C418.301 36.128 417.389 35.472 417.149 34.4H423.661C423.677 34.192 423.709 33.92 423.709 33.728ZM419.245 31.152C420.365 31.152 421.181 31.856 421.357 32.944H417.117C417.293 31.84 418.109 31.152 419.245 31.152ZM428.267 38.128C430.843 38.128 432.331 36.992 432.331 35.392C432.331 32 427.131 33.424 427.131 31.952C427.131 31.504 427.611 31.152 428.731 31.152C429.515 31.152 430.363 31.312 431.211 31.792L432.043 30.016C431.227 29.536 429.915 29.264 428.731 29.264C426.219 29.264 424.747 30.416 424.747 32.048C424.747 35.488 429.947 34.048 429.947 35.456C429.947 35.936 429.515 36.24 428.363 36.24C427.307 36.24 426.139 35.904 425.371 35.408L424.539 37.2C425.339 37.728 426.811 38.128 428.267 38.128Z" fill="#605481"/>
<path d="M739 38.192C742.2 38.192 743.752 36.592 743.752 34.72C743.752 30.608 737.24 32.032 737.24 29.968C737.24 29.264 737.832 28.688 739.368 28.688C740.36 28.688 741.432 28.976 742.472 29.568L743.272 27.6C742.232 26.944 740.792 26.608 739.384 26.608C736.2 26.608 734.664 28.192 734.664 30.096C734.664 34.256 741.176 32.816 741.176 34.912C741.176 35.6 740.552 36.112 739.016 36.112C737.672 36.112 736.264 35.632 735.32 34.944L734.44 36.896C735.432 37.664 737.224 38.192 739 38.192ZM751.335 29.392L748.903 35.232L746.487 29.392H743.911L747.639 38.064L747.607 38.144C747.271 38.912 746.887 39.216 746.199 39.216C745.703 39.216 745.175 39.008 744.791 38.672L743.879 40.448C744.439 40.944 745.399 41.232 746.279 41.232C747.831 41.232 749.015 40.608 749.847 38.528L753.735 29.392H751.335ZM759.986 29.264C758.818 29.264 757.81 29.664 757.138 30.4V29.392H754.754V38H757.25V33.744C757.25 32.16 758.114 31.424 759.314 31.424C760.418 31.424 761.058 32.064 761.058 33.456V38H763.554V33.072C763.554 30.448 762.018 29.264 759.986 29.264ZM772.182 26.128V30.304C771.558 29.6 770.662 29.264 769.606 29.264C767.174 29.264 765.302 30.992 765.302 33.696C765.302 36.4 767.174 38.128 769.606 38.128C770.758 38.128 771.67 37.76 772.294 37.008V38H774.678V26.128H772.182ZM770.038 36.08C768.79 36.08 767.83 35.184 767.83 33.696C767.83 32.208 768.79 31.312 770.038 31.312C771.27 31.312 772.23 32.208 772.23 33.696C772.23 35.184 771.27 36.08 770.038 36.08ZM778.236 28.192C779.164 28.192 779.788 27.584 779.788 26.752C779.788 25.984 779.164 25.408 778.236 25.408C777.308 25.408 776.684 26.016 776.684 26.8C776.684 27.584 777.308 28.192 778.236 28.192ZM776.988 38H779.484V29.392H776.988V38ZM785.96 38.128C787.768 38.128 789.192 37.328 789.816 35.952L787.88 34.896C787.416 35.728 786.728 36.08 785.944 36.08C784.68 36.08 783.688 35.2 783.688 33.696C783.688 32.192 784.68 31.312 785.944 31.312C786.728 31.312 787.416 31.68 787.88 32.496L789.816 31.456C789.192 30.048 787.768 29.264 785.96 29.264C783.16 29.264 781.16 31.104 781.16 33.696C781.16 36.288 783.16 38.128 785.96 38.128ZM794.726 29.264C793.35 29.264 791.958 29.632 791.014 30.304L791.91 32.048C792.534 31.552 793.478 31.248 794.39 31.248C795.734 31.248 796.374 31.872 796.374 32.944H794.39C791.766 32.944 790.694 34 790.694 35.52C790.694 37.008 791.894 38.128 793.91 38.128C795.174 38.128 796.07 37.712 796.534 36.928V38H798.87V33.088C798.87 30.48 797.35 29.264 794.726 29.264ZM794.534 36.448C793.654 36.448 793.126 36.032 793.126 35.408C793.126 34.832 793.494 34.4 794.662 34.4H796.374V35.28C796.086 36.064 795.366 36.448 794.534 36.448ZM806.009 35.824C805.737 36.032 805.369 36.144 805.001 36.144C804.329 36.144 803.929 35.744 803.929 35.008V31.504H806.073V29.584H803.929V27.488H801.433V29.584H800.105V31.504H801.433V35.04C801.433 37.088 802.617 38.128 804.649 38.128C805.417 38.128 806.169 37.952 806.681 37.584L806.009 35.824ZM816.248 33.728C816.248 30.96 814.296 29.264 811.768 29.264C809.144 29.264 807.176 31.12 807.176 33.696C807.176 36.256 809.112 38.128 812.088 38.128C813.64 38.128 814.84 37.648 815.64 36.736L814.312 35.296C813.72 35.856 813.064 36.128 812.152 36.128C810.84 36.128 809.928 35.472 809.688 34.4H816.2C816.216 34.192 816.248 33.92 816.248 33.728ZM811.784 31.152C812.904 31.152 813.72 31.856 813.896 32.944H809.656C809.832 31.84 810.648 31.152 811.784 31.152ZM824.182 26.128V30.304C823.558 29.6 822.662 29.264 821.606 29.264C819.174 29.264 817.302 30.992 817.302 33.696C817.302 36.4 819.174 38.128 821.606 38.128C822.758 38.128 823.67 37.76 824.294 37.008V38H826.678V26.128H824.182ZM822.038 36.08C820.79 36.08 819.83 35.184 819.83 33.696C819.83 32.208 820.79 31.312 822.038 31.312C823.27 31.312 824.23 32.208 824.23 33.696C824.23 35.184 823.27 36.08 822.038 36.08ZM844.543 29.264C843.247 29.264 842.127 29.792 841.439 30.672C840.831 29.728 839.807 29.264 838.607 29.264C837.503 29.264 836.543 29.648 835.903 30.384V29.392H833.519V38H836.015V33.68C836.015 32.144 836.799 31.424 837.903 31.424C838.943 31.424 839.535 32.064 839.535 33.456V38H842.031V33.68C842.031 32.144 842.815 31.424 843.935 31.424C844.943 31.424 845.567 32.064 845.567 33.456V38H848.063V33.072C848.063 30.448 846.591 29.264 844.543 29.264ZM854.49 38.128C857.226 38.128 859.21 36.288 859.21 33.696C859.21 31.104 857.226 29.264 854.49 29.264C851.754 29.264 849.754 31.104 849.754 33.696C849.754 36.288 851.754 38.128 854.49 38.128ZM854.49 36.08C853.242 36.08 852.282 35.184 852.282 33.696C852.282 32.208 853.242 31.312 854.49 31.312C855.738 31.312 856.682 32.208 856.682 33.696C856.682 35.184 855.738 36.08 854.49 36.08ZM863.263 30.528V29.392H860.879V38H863.375V33.936C863.375 32.288 864.287 31.536 865.663 31.536C865.855 31.536 866.015 31.552 866.223 31.568V29.264C864.895 29.264 863.871 29.696 863.263 30.528ZM872.884 35.824C872.612 36.032 872.244 36.144 871.876 36.144C871.204 36.144 870.804 35.744 870.804 35.008V31.504H872.948V29.584H870.804V27.488H868.308V29.584H866.98V31.504H868.308V35.04C868.308 37.088 869.492 38.128 871.524 38.128C872.292 38.128 873.044 37.952 873.556 37.584L872.884 35.824ZM881.203 29.392V30.496C880.547 29.664 879.555 29.264 878.355 29.264C875.971 29.264 874.051 30.912 874.051 33.424C874.051 35.936 875.971 37.584 878.355 37.584C879.475 37.584 880.419 37.232 881.075 36.512V36.88C881.075 38.432 880.307 39.232 878.547 39.232C877.443 39.232 876.243 38.848 875.507 38.256L874.515 40.048C875.523 40.832 877.107 41.232 878.739 41.232C881.843 41.232 883.571 39.76 883.571 36.56V29.392H881.203ZM878.851 35.536C877.539 35.536 876.579 34.688 876.579 33.424C876.579 32.16 877.539 31.312 878.851 31.312C880.163 31.312 881.107 32.16 881.107 33.424C881.107 34.688 880.163 35.536 878.851 35.536ZM889.366 29.264C887.99 29.264 886.598 29.632 885.654 30.304L886.55 32.048C887.174 31.552 888.118 31.248 889.03 31.248C890.374 31.248 891.014 31.872 891.014 32.944H889.03C886.406 32.944 885.334 34 885.334 35.52C885.334 37.008 886.534 38.128 888.55 38.128C889.814 38.128 890.71 37.712 891.174 36.928V38H893.51V33.088C893.51 30.48 891.99 29.264 889.366 29.264ZM889.174 36.448C888.294 36.448 887.766 36.032 887.766 35.408C887.766 34.832 888.134 34.4 889.302 34.4H891.014V35.28C890.726 36.064 890.006 36.448 889.174 36.448ZM902.375 29.392V30.496C901.719 29.664 900.727 29.264 899.527 29.264C897.143 29.264 895.223 30.912 895.223 33.424C895.223 35.936 897.143 37.584 899.527 37.584C900.647 37.584 901.591 37.232 902.247 36.512V36.88C902.247 38.432 901.479 39.232 899.719 39.232C898.615 39.232 897.415 38.848 896.679 38.256L895.687 40.048C896.695 40.832 898.279 41.232 899.911 41.232C903.015 41.232 904.743 39.76 904.743 36.56V29.392H902.375ZM900.023 35.536C898.711 35.536 897.751 34.688 897.751 33.424C897.751 32.16 898.711 31.312 900.023 31.312C901.335 31.312 902.279 32.16 902.279 33.424C902.279 34.688 901.335 35.536 900.023 35.536ZM915.498 33.728C915.498 30.96 913.546 29.264 911.018 29.264C908.394 29.264 906.426 31.12 906.426 33.696C906.426 36.256 908.362 38.128 911.338 38.128C912.89 38.128 914.09 37.648 914.89 36.736L913.562 35.296C912.97 35.856 912.314 36.128 911.402 36.128C910.09 36.128 909.178 35.472 908.938 34.4H915.45C915.466 34.192 915.498 33.92 915.498 33.728ZM911.034 31.152C912.154 31.152 912.97 31.856 913.146 32.944H908.906C909.082 31.84 909.898 31.152 911.034 31.152Z" fill="#605481"/>
<path d="M306.281 123H311.369C315.033 123 317.545 120.792 317.545 117.4C317.545 114.008 315.033 111.8 311.369 111.8H306.281V123ZM308.873 120.872V113.928H311.241C313.465 113.928 314.921 115.256 314.921 117.4C314.921 119.544 313.465 120.872 311.241 120.872H308.873ZM320.572 113.192C321.5 113.192 322.124 112.584 322.124 111.752C322.124 110.984 321.5 110.408 320.572 110.408C319.644 110.408 319.02 111.016 319.02 111.8C319.02 112.584 319.644 113.192 320.572 113.192ZM319.324 123H321.82V114.392H319.324V123ZM330.28 114.392L327.816 120.248L325.432 114.392H322.856L326.472 123H329.048L332.68 114.392H330.28ZM334.947 113.192C335.875 113.192 336.499 112.584 336.499 111.752C336.499 110.984 335.875 110.408 334.947 110.408C334.019 110.408 333.395 111.016 333.395 111.8C333.395 112.584 334.019 113.192 334.947 113.192ZM333.699 123H336.195V114.392H333.699V123ZM344.783 111.128V115.304C344.159 114.6 343.263 114.264 342.207 114.264C339.775 114.264 337.903 115.992 337.903 118.696C337.903 121.4 339.775 123.128 342.207 123.128C343.359 123.128 344.271 122.76 344.895 122.008V123H347.279V111.128H344.783ZM342.639 121.08C341.391 121.08 340.431 120.184 340.431 118.696C340.431 117.208 341.391 116.312 342.639 116.312C343.871 116.312 344.831 117.208 344.831 118.696C344.831 120.184 343.871 121.08 342.639 121.08ZM358.022 118.728C358.022 115.96 356.07 114.264 353.542 114.264C350.918 114.264 348.95 116.12 348.95 118.696C348.95 121.256 350.886 123.128 353.862 123.128C355.414 123.128 356.614 122.648 357.414 121.736L356.086 120.296C355.494 120.856 354.838 121.128 353.926 121.128C352.614 121.128 351.702 120.472 351.462 119.4H357.974C357.99 119.192 358.022 118.92 358.022 118.728ZM353.558 116.152C354.678 116.152 355.494 116.856 355.67 117.944H351.43C351.606 116.84 352.422 116.152 353.558 116.152ZM364.915 114.264C363.747 114.264 362.739 114.664 362.067 115.4V114.392H359.683V123H362.179V118.744C362.179 117.16 363.043 116.424 364.243 116.424C365.347 116.424 365.987 117.064 365.987 118.456V123H368.483V118.072C368.483 115.448 366.947 114.264 364.915 114.264ZM375.626 120.824C375.354 121.032 374.986 121.144 374.618 121.144C373.946 121.144 373.546 120.744 373.546 120.008V116.504H375.69V114.584H373.546V112.488H371.05V114.584H369.722V116.504H371.05V120.04C371.05 122.088 372.234 123.128 374.266 123.128C375.034 123.128 375.786 122.952 376.298 122.584L375.626 120.824ZM380.595 123.128C383.171 123.128 384.659 121.992 384.659 120.392C384.659 117 379.459 118.424 379.459 116.952C379.459 116.504 379.939 116.152 381.059 116.152C381.843 116.152 382.691 116.312 383.539 116.792L384.371 115.016C383.555 114.536 382.243 114.264 381.059 114.264C378.547 114.264 377.075 115.416 377.075 117.048C377.075 120.488 382.275 119.048 382.275 120.456C382.275 120.936 381.843 121.24 380.691 121.24C379.635 121.24 378.467 120.904 377.699 120.408L376.867 122.2C377.667 122.728 379.139 123.128 380.595 123.128Z" fill="#605481"/>
<path d="M749.531 123H752.123V111.8H749.531V123ZM759.837 114.264C758.669 114.264 757.661 114.664 756.989 115.4V114.392H754.605V123H757.101V118.744C757.101 117.16 757.965 116.424 759.165 116.424C760.269 116.424 760.909 117.064 760.909 118.456V123H763.405V118.072C763.405 115.448 761.869 114.264 759.837 114.264ZM770.548 120.824C770.276 121.032 769.908 121.144 769.54 121.144C768.868 121.144 768.468 120.744 768.468 120.008V116.504H770.612V114.584H768.468V112.488H765.972V114.584H764.644V116.504H765.972V120.04C765.972 122.088 767.156 123.128 769.188 123.128C769.956 123.128 770.708 122.952 771.22 122.584L770.548 120.824ZM780.787 118.728C780.787 115.96 778.835 114.264 776.307 114.264C773.683 114.264 771.715 116.12 771.715 118.696C771.715 121.256 773.651 123.128 776.627 123.128C778.179 123.128 779.379 122.648 780.179 121.736L778.851 120.296C778.259 120.856 777.603 121.128 776.691 121.128C775.379 121.128 774.467 120.472 774.227 119.4H780.739C780.755 119.192 780.787 118.92 780.787 118.728ZM776.323 116.152C777.443 116.152 778.259 116.856 778.435 117.944H774.195C774.371 116.84 775.187 116.152 776.323 116.152ZM784.833 115.528V114.392H782.449V123H784.945V118.936C784.945 117.288 785.857 116.536 787.233 116.536C787.425 116.536 787.585 116.552 787.793 116.568V114.264C786.465 114.264 785.441 114.696 784.833 115.528ZM797.631 118.728C797.631 115.96 795.679 114.264 793.151 114.264C790.527 114.264 788.559 116.12 788.559 118.696C788.559 121.256 790.495 123.128 793.471 123.128C795.023 123.128 796.223 122.648 797.023 121.736L795.695 120.296C795.103 120.856 794.447 121.128 793.535 121.128C792.223 121.128 791.311 120.472 791.071 119.4H797.583C797.599 119.192 797.631 118.92 797.631 118.728ZM793.167 116.152C794.287 116.152 795.103 116.856 795.279 117.944H791.039C791.215 116.84 792.031 116.152 793.167 116.152ZM802.189 123.128C804.765 123.128 806.253 121.992 806.253 120.392C806.253 117 801.053 118.424 801.053 116.952C801.053 116.504 801.533 116.152 802.653 116.152C803.437 116.152 804.285 116.312 805.133 116.792L805.965 115.016C805.149 114.536 803.837 114.264 802.653 114.264C800.141 114.264 798.669 115.416 798.669 117.048C798.669 120.488 803.869 119.048 803.869 120.456C803.869 120.936 803.437 121.24 802.285 121.24C801.229 121.24 800.061 120.904 799.293 120.408L798.461 122.2C799.261 122.728 800.733 123.128 802.189 123.128ZM812.673 120.824C812.401 121.032 812.033 121.144 811.665 121.144C810.993 121.144 810.593 120.744 810.593 120.008V116.504H812.737V114.584H810.593V112.488H808.097V114.584H806.769V116.504H808.097V120.04C808.097 122.088 809.281 123.128 811.313 123.128C812.081 123.128 812.833 122.952 813.345 122.584L812.673 120.824ZM824.365 114.264C823.213 114.264 822.285 114.632 821.661 115.384V114.392H819.277V126.104H821.773V122.088C822.413 122.792 823.293 123.128 824.365 123.128C826.781 123.128 828.653 121.4 828.653 118.696C828.653 115.992 826.781 114.264 824.365 114.264ZM823.933 121.08C822.685 121.08 821.741 120.184 821.741 118.696C821.741 117.208 822.685 116.312 823.933 116.312C825.181 116.312 826.125 117.208 826.125 118.696C826.125 120.184 825.181 121.08 823.933 121.08ZM833.655 114.264C832.279 114.264 830.887 114.632 829.943 115.304L830.839 117.048C831.463 116.552 832.407 116.248 833.319 116.248C834.663 116.248 835.303 116.872 835.303 117.944H833.319C830.695 117.944 829.623 119 829.623 120.52C829.623 122.008 830.823 123.128 832.839 123.128C834.103 123.128 834.999 122.712 835.463 121.928V123H837.799V118.088C837.799 115.48 836.279 114.264 833.655 114.264ZM833.463 121.448C832.583 121.448 832.055 121.032 832.055 120.408C832.055 119.832 832.423 119.4 833.591 119.4H835.303V120.28C835.015 121.064 834.295 121.448 833.463 121.448ZM846.046 114.392L843.614 120.232L841.198 114.392H838.622L842.35 123.064L842.318 123.144C841.982 123.912 841.598 124.216 840.91 124.216C840.414 124.216 839.886 124.008 839.502 123.672L838.59 125.448C839.15 125.944 840.11 126.232 840.99 126.232C842.542 126.232 843.726 125.608 844.558 123.528L848.446 114.392H846.046ZM860.489 114.264C859.193 114.264 858.073 114.792 857.385 115.672C856.777 114.728 855.753 114.264 854.553 114.264C853.449 114.264 852.489 114.648 851.849 115.384V114.392H849.465V123H851.961V118.68C851.961 117.144 852.745 116.424 853.849 116.424C854.889 116.424 855.481 117.064 855.481 118.456V123H857.977V118.68C857.977 117.144 858.761 116.424 859.881 116.424C860.889 116.424 861.513 117.064 861.513 118.456V123H864.009V118.072C864.009 115.448 862.537 114.264 860.489 114.264ZM874.772 118.728C874.772 115.96 872.82 114.264 870.292 114.264C867.668 114.264 865.7 116.12 865.7 118.696C865.7 121.256 867.636 123.128 870.612 123.128C872.164 123.128 873.364 122.648 874.164 121.736L872.836 120.296C872.244 120.856 871.588 121.128 870.676 121.128C869.364 121.128 868.452 120.472 868.212 119.4H874.724C874.74 119.192 874.772 118.92 874.772 118.728ZM870.308 116.152C871.428 116.152 872.244 116.856 872.42 117.944H868.18C868.356 116.84 869.172 116.152 870.308 116.152ZM881.665 114.264C880.497 114.264 879.489 114.664 878.817 115.4V114.392H876.433V123H878.929V118.744C878.929 117.16 879.793 116.424 880.993 116.424C882.097 116.424 882.737 117.064 882.737 118.456V123H885.233V118.072C885.233 115.448 883.697 114.264 881.665 114.264ZM892.376 120.824C892.104 121.032 891.736 121.144 891.368 121.144C890.696 121.144 890.296 120.744 890.296 120.008V116.504H892.44V114.584H890.296V112.488H887.8V114.584H886.472V116.504H887.8V120.04C887.8 122.088 888.984 123.128 891.016 123.128C891.784 123.128 892.536 122.952 893.048 122.584L892.376 120.824ZM897.345 123.128C899.921 123.128 901.409 121.992 901.409 120.392C901.409 117 896.209 118.424 896.209 116.952C896.209 116.504 896.689 116.152 897.809 116.152C898.593 116.152 899.441 116.312 900.289 116.792L901.121 115.016C900.305 114.536 898.993 114.264 897.809 114.264C895.297 114.264 893.825 115.416 893.825 117.048C893.825 120.488 899.025 119.048 899.025 120.456C899.025 120.936 898.593 121.24 897.441 121.24C896.385 121.24 895.217 120.904 894.449 120.408L893.617 122.2C894.417 122.728 895.889 123.128 897.345 123.128Z" fill="#605481"/>
<path d="M293.561 206L291.049 202.4C292.505 201.776 293.353 200.544 293.353 198.864C293.353 196.352 291.481 194.8 288.489 194.8H283.641V206H286.233V202.88H288.489H288.617L290.777 206H293.561ZM290.729 198.864C290.729 200.08 289.929 200.816 288.345 200.816H286.233V196.912H288.345C289.929 196.912 290.729 197.632 290.729 198.864ZM303.662 201.728C303.662 198.96 301.71 197.264 299.182 197.264C296.558 197.264 294.59 199.12 294.59 201.696C294.59 204.256 296.526 206.128 299.502 206.128C301.054 206.128 302.254 205.648 303.054 204.736L301.726 203.296C301.134 203.856 300.478 204.128 299.566 204.128C298.254 204.128 297.342 203.472 297.102 202.4H303.614C303.63 202.192 303.662 201.92 303.662 201.728ZM299.198 199.152C300.318 199.152 301.134 199.856 301.31 200.944H297.07C297.246 199.84 298.062 199.152 299.198 199.152ZM311.596 194.128V198.304C310.972 197.6 310.076 197.264 309.02 197.264C306.588 197.264 304.716 198.992 304.716 201.696C304.716 204.4 306.588 206.128 309.02 206.128C310.172 206.128 311.084 205.76 311.708 205.008V206H314.092V194.128H311.596ZM309.452 204.08C308.204 204.08 307.244 203.184 307.244 201.696C307.244 200.208 308.204 199.312 309.452 199.312C310.684 199.312 311.644 200.208 311.644 201.696C311.644 203.184 310.684 204.08 309.452 204.08ZM324.834 201.728C324.834 198.96 322.882 197.264 320.354 197.264C317.73 197.264 315.762 199.12 315.762 201.696C315.762 204.256 317.698 206.128 320.674 206.128C322.226 206.128 323.426 205.648 324.226 204.736L322.898 203.296C322.306 203.856 321.65 204.128 320.738 204.128C319.426 204.128 318.514 203.472 318.274 202.4H324.786C324.802 202.192 324.834 201.92 324.834 201.728ZM320.37 199.152C321.49 199.152 322.306 199.856 322.482 200.944H318.242C318.418 199.84 319.234 199.152 320.37 199.152ZM337.52 197.264C336.224 197.264 335.104 197.792 334.416 198.672C333.808 197.728 332.784 197.264 331.584 197.264C330.48 197.264 329.52 197.648 328.88 198.384V197.392H326.496V206H328.992V201.68C328.992 200.144 329.776 199.424 330.88 199.424C331.92 199.424 332.512 200.064 332.512 201.456V206H335.008V201.68C335.008 200.144 335.792 199.424 336.912 199.424C337.92 199.424 338.544 200.064 338.544 201.456V206H341.04V201.072C341.04 198.448 339.568 197.264 337.52 197.264ZM348.365 197.264C347.213 197.264 346.285 197.632 345.661 198.384V197.392H343.277V209.104H345.773V205.088C346.413 205.792 347.293 206.128 348.365 206.128C350.781 206.128 352.653 204.4 352.653 201.696C352.653 198.992 350.781 197.264 348.365 197.264ZM347.933 204.08C346.685 204.08 345.741 203.184 345.741 201.696C345.741 200.208 346.685 199.312 347.933 199.312C349.181 199.312 350.125 200.208 350.125 201.696C350.125 203.184 349.181 204.08 347.933 204.08ZM359.204 203.824C358.932 204.032 358.564 204.144 358.196 204.144C357.524 204.144 357.124 203.744 357.124 203.008V199.504H359.268V197.584H357.124V195.488H354.628V197.584H353.3V199.504H354.628V203.04C354.628 205.088 355.812 206.128 357.844 206.128C358.612 206.128 359.364 205.952 359.876 205.584L359.204 203.824ZM362.525 196.192C363.453 196.192 364.077 195.584 364.077 194.752C364.077 193.984 363.453 193.408 362.525 193.408C361.597 193.408 360.973 194.016 360.973 194.8C360.973 195.584 361.597 196.192 362.525 196.192ZM361.277 206H363.773V197.392H361.277V206ZM370.186 206.128C372.922 206.128 374.906 204.288 374.906 201.696C374.906 199.104 372.922 197.264 370.186 197.264C367.45 197.264 365.45 199.104 365.45 201.696C365.45 204.288 367.45 206.128 370.186 206.128ZM370.186 204.08C368.938 204.08 367.978 203.184 367.978 201.696C367.978 200.208 368.938 199.312 370.186 199.312C371.434 199.312 372.378 200.208 372.378 201.696C372.378 203.184 371.434 204.08 370.186 204.08ZM381.806 197.264C380.638 197.264 379.63 197.664 378.958 198.4V197.392H376.574V206H379.07V201.744C379.07 200.16 379.934 199.424 381.134 199.424C382.238 199.424 382.878 200.064 382.878 201.456V206H385.374V201.072C385.374 198.448 383.838 197.264 381.806 197.264ZM396.264 206.128C399 206.128 400.984 204.288 400.984 201.696C400.984 199.104 399 197.264 396.264 197.264C393.528 197.264 391.528 199.104 391.528 201.696C391.528 204.288 393.528 206.128 396.264 206.128ZM396.264 204.08C395.016 204.08 394.056 203.184 394.056 201.696C394.056 200.208 395.016 199.312 396.264 199.312C397.512 199.312 398.456 200.208 398.456 201.696C398.456 203.184 397.512 204.08 396.264 204.08ZM405.388 197.216C405.388 196.368 405.788 195.968 406.524 195.968C406.908 195.968 407.26 196.08 407.532 196.272L408.188 194.464C407.724 194.144 406.988 194 406.284 194C404.14 194 402.956 195.264 402.956 197.2V197.584H401.628V199.504H402.956V206H405.452V199.504H407.596V197.584H405.388V197.216ZM282.178 222.264C281.026 222.264 280.098 222.632 279.474 223.384V222.392H277.09V234.104H279.586V230.088C280.226 230.792 281.106 231.128 282.178 231.128C284.594 231.128 286.466 229.4 286.466 226.696C286.466 223.992 284.594 222.264 282.178 222.264ZM281.746 229.08C280.498 229.08 279.554 228.184 279.554 226.696C279.554 225.208 280.498 224.312 281.746 224.312C282.994 224.312 283.938 225.208 283.938 226.696C283.938 228.184 282.994 229.08 281.746 229.08ZM290.52 223.528V222.392H288.136V231H290.632V226.936C290.632 225.288 291.544 224.536 292.92 224.536C293.112 224.536 293.272 224.552 293.48 224.568V222.264C292.152 222.264 291.128 222.696 290.52 223.528ZM303.318 226.728C303.318 223.96 301.366 222.264 298.838 222.264C296.214 222.264 294.246 224.12 294.246 226.696C294.246 229.256 296.182 231.128 299.158 231.128C300.71 231.128 301.91 230.648 302.71 229.736L301.382 228.296C300.79 228.856 300.134 229.128 299.222 229.128C297.91 229.128 296.998 228.472 296.758 227.4H303.27C303.286 227.192 303.318 226.92 303.318 226.728ZM298.854 224.152C299.974 224.152 300.79 224.856 300.966 225.944H296.726C296.902 224.84 297.718 224.152 298.854 224.152ZM307.716 222.216C307.716 221.368 308.116 220.968 308.852 220.968C309.236 220.968 309.588 221.08 309.86 221.272L310.516 219.464C310.052 219.144 309.316 219 308.612 219C306.468 219 305.284 220.264 305.284 222.2V222.584H303.956V224.504H305.284V231H307.78V224.504H309.924V222.584H307.716V222.216ZM319.49 226.728C319.49 223.96 317.538 222.264 315.01 222.264C312.386 222.264 310.418 224.12 310.418 226.696C310.418 229.256 312.354 231.128 315.33 231.128C316.882 231.128 318.082 230.648 318.882 229.736L317.554 228.296C316.962 228.856 316.306 229.128 315.394 229.128C314.082 229.128 313.17 228.472 312.93 227.4H319.442C319.458 227.192 319.49 226.92 319.49 226.728ZM315.026 224.152C316.146 224.152 316.962 224.856 317.138 225.944H312.898C313.074 224.84 313.89 224.152 315.026 224.152ZM323.536 223.528V222.392H321.152V231H323.648V226.936C323.648 225.288 324.56 224.536 325.936 224.536C326.128 224.536 326.288 224.552 326.496 224.568V222.264C325.168 222.264 324.144 222.696 323.536 223.528ZM330.364 223.528V222.392H327.98V231H330.476V226.936C330.476 225.288 331.388 224.536 332.764 224.536C332.956 224.536 333.116 224.552 333.324 224.568V222.264C331.996 222.264 330.972 222.696 330.364 223.528ZM343.162 226.728C343.162 223.96 341.21 222.264 338.682 222.264C336.058 222.264 334.09 224.12 334.09 226.696C334.09 229.256 336.026 231.128 339.002 231.128C340.554 231.128 341.754 230.648 342.554 229.736L341.226 228.296C340.634 228.856 339.978 229.128 339.066 229.128C337.754 229.128 336.842 228.472 336.602 227.4H343.114C343.13 227.192 343.162 226.92 343.162 226.728ZM338.698 224.152C339.818 224.152 340.634 224.856 340.81 225.944H336.57C336.746 224.84 337.562 224.152 338.698 224.152ZM351.096 219.128V223.304C350.472 222.6 349.576 222.264 348.52 222.264C346.088 222.264 344.216 223.992 344.216 226.696C344.216 229.4 346.088 231.128 348.52 231.128C349.672 231.128 350.584 230.76 351.208 230.008V231H353.592V219.128H351.096ZM348.952 229.08C347.704 229.08 346.744 228.184 346.744 226.696C346.744 225.208 347.704 224.312 348.952 224.312C350.184 224.312 351.144 225.208 351.144 226.696C351.144 228.184 350.184 229.08 348.952 229.08ZM363.329 231.128C365.905 231.128 367.393 229.992 367.393 228.392C367.393 225 362.193 226.424 362.193 224.952C362.193 224.504 362.673 224.152 363.793 224.152C364.577 224.152 365.425 224.312 366.273 224.792L367.105 223.016C366.289 222.536 364.977 222.264 363.793 222.264C361.281 222.264 359.809 223.416 359.809 225.048C359.809 228.488 365.009 227.048 365.009 228.456C365.009 228.936 364.577 229.24 363.425 229.24C362.369 229.24 361.201 228.904 360.433 228.408L359.601 230.2C360.401 230.728 361.873 231.128 363.329 231.128ZM374.165 222.264C373.061 222.264 372.101 222.616 371.429 223.288V219.128H368.933V231H371.429V226.744C371.429 225.16 372.293 224.424 373.493 224.424C374.597 224.424 375.237 225.064 375.237 226.456V231H377.733V226.072C377.733 223.448 376.197 222.264 374.165 222.264ZM383.468 222.264C382.092 222.264 380.7 222.632 379.756 223.304L380.652 225.048C381.276 224.552 382.22 224.248 383.132 224.248C384.476 224.248 385.116 224.872 385.116 225.944H383.132C380.508 225.944 379.436 227 379.436 228.52C379.436 230.008 380.636 231.128 382.652 231.128C383.916 231.128 384.812 230.712 385.276 229.928V231H387.612V226.088C387.612 223.48 386.092 222.264 383.468 222.264ZM383.276 229.448C382.396 229.448 381.868 229.032 381.868 228.408C381.868 227.832 382.236 227.4 383.404 227.4H385.116V228.28C384.828 229.064 384.108 229.448 383.276 229.448ZM392.255 223.528V222.392H389.871V231H392.367V226.936C392.367 225.288 393.279 224.536 394.655 224.536C394.847 224.536 395.007 224.552 395.215 224.568V222.264C393.887 222.264 392.863 222.696 392.255 223.528ZM405.053 226.728C405.053 223.96 403.101 222.264 400.573 222.264C397.949 222.264 395.981 224.12 395.981 226.696C395.981 229.256 397.917 231.128 400.893 231.128C402.445 231.128 403.645 230.648 404.445 229.736L403.117 228.296C402.525 228.856 401.869 229.128 400.957 229.128C399.645 229.128 398.733 228.472 398.493 227.4H405.005C405.021 227.192 405.053 226.92 405.053 226.728ZM400.589 224.152C401.709 224.152 402.525 224.856 402.701 225.944H398.461C398.637 224.84 399.453 224.152 400.589 224.152ZM409.611 231.128C412.187 231.128 413.675 229.992 413.675 228.392C413.675 225 408.475 226.424 408.475 224.952C408.475 224.504 408.955 224.152 410.075 224.152C410.859 224.152 411.707 224.312 412.555 224.792L413.387 223.016C412.571 222.536 411.259 222.264 410.075 222.264C407.562 222.264 406.09 223.416 406.09 225.048C406.09 228.488 411.291 227.048 411.291 228.456C411.291 228.936 410.859 229.24 409.707 229.24C408.651 229.24 407.483 228.904 406.715 228.408L405.883 230.2C406.683 230.728 408.155 231.128 409.611 231.128Z" fill="#605481"/>
<path d="M794.067 194.8H789.219V206H791.811V202.912H794.067C797.059 202.912 798.931 201.36 798.931 198.864C798.931 196.352 797.059 194.8 794.067 194.8ZM793.923 200.8H791.811V196.912H793.923C795.507 196.912 796.307 197.632 796.307 198.864C796.307 200.08 795.507 200.8 793.923 200.8ZM802.989 198.528V197.392H800.605V206H803.101V201.936C803.101 200.288 804.013 199.536 805.389 199.536C805.581 199.536 805.741 199.552 805.949 199.568V197.264C804.621 197.264 803.597 197.696 802.989 198.528ZM808.681 196.192C809.609 196.192 810.233 195.584 810.233 194.752C810.233 193.984 809.609 193.408 808.681 193.408C807.753 193.408 807.129 194.016 807.129 194.8C807.129 195.584 807.753 196.192 808.681 196.192ZM807.433 206H809.929V197.392H807.433V206ZM817.478 197.264C816.31 197.264 815.302 197.664 814.63 198.4V197.392H812.246V206H814.742V201.744C814.742 200.16 815.606 199.424 816.806 199.424C817.91 199.424 818.55 200.064 818.55 201.456V206H821.046V201.072C821.046 198.448 819.51 197.264 817.478 197.264ZM827.562 206.128C829.37 206.128 830.794 205.328 831.418 203.952L829.482 202.896C829.018 203.728 828.33 204.08 827.546 204.08C826.282 204.08 825.29 203.2 825.29 201.696C825.29 200.192 826.282 199.312 827.546 199.312C828.33 199.312 829.018 199.68 829.482 200.496L831.418 199.456C830.794 198.048 829.37 197.264 827.562 197.264C824.762 197.264 822.762 199.104 822.762 201.696C822.762 204.288 824.762 206.128 827.562 206.128ZM834.103 196.192C835.031 196.192 835.655 195.584 835.655 194.752C835.655 193.984 835.031 193.408 834.103 193.408C833.175 193.408 832.551 194.016 832.551 194.8C832.551 195.584 833.175 196.192 834.103 196.192ZM832.855 206H835.351V197.392H832.855V206ZM842.756 197.264C841.604 197.264 840.676 197.632 840.052 198.384V197.392H837.668V209.104H840.164V205.088C840.804 205.792 841.684 206.128 842.756 206.128C845.172 206.128 847.044 204.4 847.044 201.696C847.044 198.992 845.172 197.264 842.756 197.264ZM842.324 204.08C841.076 204.08 840.132 203.184 840.132 201.696C840.132 200.208 841.076 199.312 842.324 199.312C843.572 199.312 844.516 200.208 844.516 201.696C844.516 203.184 843.572 204.08 842.324 204.08ZM852.046 197.264C850.67 197.264 849.278 197.632 848.334 198.304L849.23 200.048C849.854 199.552 850.798 199.248 851.71 199.248C853.054 199.248 853.694 199.872 853.694 200.944H851.71C849.086 200.944 848.014 202 848.014 203.52C848.014 205.008 849.214 206.128 851.23 206.128C852.494 206.128 853.39 205.712 853.854 204.928V206H856.19V201.088C856.19 198.48 854.67 197.264 852.046 197.264ZM851.854 204.448C850.974 204.448 850.446 204.032 850.446 203.408C850.446 202.832 850.814 202.4 851.982 202.4H853.694V203.28C853.406 204.064 852.686 204.448 851.854 204.448ZM858.449 206H860.945V194.128H858.449V206ZM778.278 223.528V222.392H775.894V231H778.39V226.936C778.39 225.288 779.302 224.536 780.678 224.536C780.87 224.536 781.03 224.552 781.238 224.568V222.264C779.91 222.264 778.886 222.696 778.278 223.528ZM791.076 226.728C791.076 223.96 789.124 222.264 786.596 222.264C783.972 222.264 782.004 224.12 782.004 226.696C782.004 229.256 783.94 231.128 786.916 231.128C788.468 231.128 789.668 230.648 790.468 229.736L789.14 228.296C788.548 228.856 787.892 229.128 786.98 229.128C785.668 229.128 784.756 228.472 784.516 227.4H791.028C791.044 227.192 791.076 226.92 791.076 226.728ZM786.612 224.152C787.732 224.152 788.548 224.856 788.724 225.944H784.484C784.66 224.84 785.476 224.152 786.612 224.152ZM797.826 222.264C796.674 222.264 795.746 222.632 795.122 223.384V222.392H792.738V234.104H795.234V230.088C795.874 230.792 796.754 231.128 797.826 231.128C800.242 231.128 802.114 229.4 802.114 226.696C802.114 223.992 800.242 222.264 797.826 222.264ZM797.394 229.08C796.146 229.08 795.202 228.184 795.202 226.696C795.202 225.208 796.146 224.312 797.394 224.312C798.642 224.312 799.586 225.208 799.586 226.696C799.586 228.184 798.642 229.08 797.394 229.08ZM807.116 222.264C805.74 222.264 804.348 222.632 803.404 223.304L804.3 225.048C804.924 224.552 805.868 224.248 806.78 224.248C808.124 224.248 808.764 224.872 808.764 225.944H806.78C804.156 225.944 803.084 227 803.084 228.52C803.084 230.008 804.284 231.128 806.3 231.128C807.564 231.128 808.46 230.712 808.924 229.928V231H811.26V226.088C811.26 223.48 809.74 222.264 807.116 222.264ZM806.924 229.448C806.044 229.448 805.516 229.032 805.516 228.408C805.516 227.832 805.884 227.4 807.052 227.4H808.764V228.28C808.476 229.064 807.756 229.448 806.924 229.448ZM819.507 222.392L817.075 228.232L814.659 222.392H812.083L815.811 231.064L815.779 231.144C815.443 231.912 815.059 232.216 814.371 232.216C813.875 232.216 813.347 232.008 812.963 231.672L812.051 233.448C812.611 233.944 813.571 234.232 814.451 234.232C816.003 234.232 817.187 233.608 818.019 231.528L821.907 222.392H819.507ZM833.949 222.264C832.653 222.264 831.533 222.792 830.845 223.672C830.237 222.728 829.213 222.264 828.013 222.264C826.909 222.264 825.949 222.648 825.309 223.384V222.392H822.925V231H825.421V226.68C825.421 225.144 826.205 224.424 827.309 224.424C828.349 224.424 828.941 225.064 828.941 226.456V231H831.437V226.68C831.437 225.144 832.221 224.424 833.341 224.424C834.349 224.424 834.973 225.064 834.973 226.456V231H837.469V226.072C837.469 223.448 835.997 222.264 833.949 222.264ZM848.232 226.728C848.232 223.96 846.28 222.264 843.752 222.264C841.128 222.264 839.16 224.12 839.16 226.696C839.16 229.256 841.096 231.128 844.072 231.128C845.624 231.128 846.824 230.648 847.624 229.736L846.296 228.296C845.704 228.856 845.048 229.128 844.136 229.128C842.824 229.128 841.912 228.472 841.672 227.4H848.184C848.2 227.192 848.232 226.92 848.232 226.728ZM843.768 224.152C844.888 224.152 845.704 224.856 845.88 225.944H841.64C841.816 224.84 842.632 224.152 843.768 224.152ZM855.126 222.264C853.958 222.264 852.95 222.664 852.278 223.4V222.392H849.894V231H852.39V226.744C852.39 225.16 853.254 224.424 854.454 224.424C855.558 224.424 856.198 225.064 856.198 226.456V231H858.694V226.072C858.694 223.448 857.158 222.264 855.126 222.264ZM865.837 228.824C865.565 229.032 865.197 229.144 864.829 229.144C864.157 229.144 863.757 228.744 863.757 228.008V224.504H865.901V222.584H863.757V220.488H861.261V222.584H859.933V224.504H861.261V228.04C861.261 230.088 862.445 231.128 864.477 231.128C865.245 231.128 865.997 230.952 866.509 230.584L865.837 228.824ZM870.806 231.128C873.382 231.128 874.87 229.992 874.87 228.392C874.87 225 869.67 226.424 869.67 224.952C869.67 224.504 870.15 224.152 871.27 224.152C872.054 224.152 872.902 224.312 873.75 224.792L874.582 223.016C873.766 222.536 872.454 222.264 871.27 222.264C868.758 222.264 867.286 223.416 867.286 225.048C867.286 228.488 872.486 227.048 872.486 228.456C872.486 228.936 872.054 229.24 870.902 229.24C869.846 229.24 868.678 228.904 867.91 228.408L867.078 230.2C867.878 230.728 869.35 231.128 870.806 231.128Z" fill="#605481"/>
</svg>
